<?xml version="1.0" encoding="UTF-8"?>
<svg version="1.1" xmlns="http://www.w3.org/2000/svg" width="162" height="216">
<path d="M0 0 C53.46 0 106.92 0 162 0 C162 71.28 162 142.56 162 216 C108.54 216 55.08 216 0 216 C0 144.72 0 73.44 0 0 Z " fill="#040303" transform="translate(0,0)"/>
<path d="M0 0 C53.46 0 106.92 0 162 0 C162 14.52 162 29.04 162 44 C155.79911481 42.22831852 154.41916947 41.75087309 150 38 C147.74556903 36.6831723 145.50301435 35.4282426 143.1953125 34.21484375 C142.5531076 33.87248184 141.91090271 33.53011993 141.24923706 33.17738342 C139.89745353 32.45814514 138.54432904 31.74142205 137.18994141 31.02709961 C135.13503824 29.94279684 133.08482625 28.85001639 131.03515625 27.75585938 C129.7138107 27.05418064 128.39220445 26.35299257 127.0703125 25.65234375 C126.46591339 25.33039536 125.86151428 25.00844696 125.23880005 24.67674255 C121.22900324 22.56735501 117.17140413 20.75525069 113 19 C110.9927542 18.01462479 108.99019747 17.01936943 107 16 C107 15.01 107 14.02 107 13 C105.21165938 12.83407149 103.41851441 12.71987104 101.625 12.625 C100.12839844 12.52058594 100.12839844 12.52058594 98.6015625 12.4140625 C93.25728127 13.28352257 89.45705922 16.02945951 85 19 C84.18225098 19.54285645 83.36450195 20.08571289 82.52197266 20.64501953 C80.00628257 22.33463231 77.5033877 24.04222578 75 25.75 C66.32070715 31.60037789 57.46836312 36.85487823 48.24560547 41.79248047 C44.26931448 43.9306339 40.32325852 46.12315611 36.375 48.3125 C35.6528833 48.70920898 34.9307666 49.10591797 34.18676758 49.51464844 C25.44816419 53.57462218 25.44816419 53.57462218 19 60 C18.75860878 62.4025793 18.57756785 64.77823167 18.4453125 67.1875 C18.40326691 67.93580078 18.36122131 68.68410156 18.31790161 69.45507812 C17.69505621 81.74881162 17.79996059 94.07200074 17.94458008 106.37695312 C17.96764224 108.51171148 17.99002415 110.6464773 18.01171875 112.78125 C18.02304337 113.82873413 18.03436798 114.87621826 18.04603577 115.95544434 C18.08268988 122.32346569 17.78612525 128.56757598 17.20703125 134.90625 C16.19127954 146.68049221 16.19127954 146.68049221 19 158 C25.80739971 165.27050582 35.14794094 168.80741021 44.23681641 172.42822266 C49.59890297 174.59891786 54.4874866 177.52794516 59.4375 180.5 C61.10759808 181.46142665 62.77940424 182.41989393 64.453125 183.375 C67.32548401 185.02870962 70.18965598 186.69528435 73.046875 188.375 C78.84549821 191.76789211 84.50650727 194.75512847 90.828125 197.05859375 C93.66238744 198.28711398 95.84419957 199.99534841 98.13671875 202.046875 C101.21240023 203.62017957 103.70629738 203.77261077 107 203 C111.00030678 201.02579267 114.66130699 198.58827156 118.375 196.125 C120.52231056 194.74043816 122.67075443 193.35763245 124.8203125 191.9765625 C126.3966748 190.9561084 126.3966748 190.9561084 128.00488281 189.91503906 C132.02922357 187.3419278 136.1200533 184.89886863 140.25 182.5 C140.92538818 182.1071582 141.60077637 181.71431641 142.29663086 181.30957031 C143.58338945 180.56245098 144.87071688 179.81631025 146.15869141 179.07128906 C147.99197577 178.00466857 149.81549942 176.92301037 151.63671875 175.8359375 C152.72597656 175.18882812 153.81523437 174.54171875 154.9375 173.875 C155.87464844 173.31554687 156.81179687 172.75609375 157.77734375 172.1796875 C160 171 160 171 162 171 C162 185.85 162 200.7 162 216 C108.54 216 55.08 216 0 216 C0 144.72 0 73.44 0 0 Z " fill="#040203" transform="translate(0,0)"/>
<path d="M0 0 C1.10601562 0.03673828 1.10601562 0.03673828 2.234375 0.07421875 C4.25 0.3125 4.25 0.3125 7.25 1.3125 C7.25 2.3025 7.25 3.2925 7.25 4.3125 C8.054375 4.56 8.85875 4.8075 9.6875 5.0625 C18.70380366 8.22611532 27.06305342 12.73824491 35.47167969 17.23046875 C37.50658196 18.31601123 39.54607493 19.39256351 41.5859375 20.46875 C42.89612077 21.16612692 44.20602657 21.86402543 45.515625 22.5625 C46.11779846 22.87928711 46.71997192 23.19607422 47.34039307 23.52246094 C50.05327433 24.98111651 52.45957271 26.4819785 54.85839844 28.421875 C57.48232751 30.68039819 57.48232751 30.68039819 62.25 32.3125 C62.25 37.2625 62.25 42.2125 62.25 47.3125 C57.29492916 45.66080972 53.43363208 43.80550243 49.0625 41.125 C43.56352224 37.80831544 38.01493992 34.60568143 32.37890625 31.52734375 C31.4836599 31.0369738 31.4836599 31.0369738 30.57032776 30.53669739 C27.58694274 28.90363839 24.59943705 27.27954382 21.60473633 25.66723633 C15.52196203 22.34032579 10.37444772 18.97108884 5.25 14.3125 C2.19287878 13.14168762 0.47489361 12.87266346 -2.62109375 13.984375 C-6.99348075 16.06402885 -11.05239818 18.69177529 -15.0859375 21.359375 C-16.75 22.3125 -16.75 22.3125 -18.75 22.3125 C-18.42 20.9925 -18.09 19.6725 -17.75 18.3125 C-24.62341892 21.10846702 -30.76715124 24.65898482 -37.02734375 28.60546875 C-39.75 30.3125 -39.75 30.3125 -41.75 31.3125 C-42.08 32.3025 -42.41 33.2925 -42.75 34.3125 C-40.11 33.6525 -37.47 32.9925 -34.75 32.3125 C-35.75 35.3125 -35.75 35.3125 -37.83203125 36.53588867 C-38.73308594 36.9301001 -39.63414063 37.32431152 -40.5625 37.73046875 C-41.55636719 38.18099609 -42.55023438 38.63152344 -43.57421875 39.09570312 C-45.65804873 40.0171507 -47.74392918 40.93397795 -49.83203125 41.84570312 C-57.85442325 45.49645789 -65.67925167 49.48598306 -69.296875 57.91796875 C-70.78057818 67.6778061 -70.02554088 77.9287158 -69.8482666 87.77957153 C-69.75653738 93.12562304 -69.77340004 98.46278643 -69.83734131 103.80912781 C-69.86661157 107.68993127 -69.82556143 111.56814727 -69.77038574 115.44857788 C-69.75688732 117.34492406 -69.77059637 119.24167526 -69.81262207 121.13760376 C-70.32260241 131.17291011 -70.32260241 131.17291011 -66.29745483 139.9251709 C-62.50852098 142.8526437 -58.27641516 144.67876568 -53.85198975 146.44213867 C-50.765489 147.72015199 -47.91760543 149.36058551 -45.01953125 151.015625 C-43.95943848 151.59739502 -42.8993457 152.17916504 -41.80712891 152.77856445 C-31.11228749 158.65871541 -20.57931893 164.71386879 -10.28442383 171.27636719 C-6.50531173 173.67514486 -2.97399373 175.76989426 1.25 177.3125 C3.0625 178.9375 3.0625 178.9375 4.25 180.3125 C-3.48039374 180.3125 -8.60663655 176.5978293 -14.87695312 172.51123047 C-18.17803521 170.39857236 -21.55693914 168.41959666 -24.9375 166.4375 C-26.00436035 165.81041138 -26.00436035 165.81041138 -27.09277344 165.1706543 C-33.08014941 161.66866722 -39.13048754 158.28570164 -45.20507812 154.93774414 C-48.73702908 152.99061326 -52.25878594 151.03116354 -55.75 149.01171875 C-56.68743042 148.4695874 -56.68743042 148.4695874 -57.64379883 147.91650391 C-59.31006046 146.94899715 -60.97350916 145.97665032 -62.63671875 145.00390625 C-65.90207831 143.22987778 -69.33432177 141.7763621 -72.75 140.3125 C-72.75 115.8925 -72.75 91.4725 -72.75 66.3125 C-73.41 66.3125 -74.07 66.3125 -74.75 66.3125 C-75.20117224 75.97932893 -75.51311391 85.63828535 -75.65415287 95.31463814 C-75.72391896 99.81036215 -75.83902769 104.29476199 -76.06323242 108.78564453 C-77.78225152 127.98492187 -77.78225152 127.98492187 -71.39041138 145.25082397 C-65.54831305 149.98758619 -59.10235038 152.63473803 -52.04309082 155.05709839 C-46.50765495 157.16733327 -41.59733831 160.2882826 -36.5625 163.375 C-34.59078 164.52987171 -32.61709018 165.68139321 -30.640625 166.828125 C-26.62194961 169.18906337 -22.63895243 171.60029799 -18.671875 174.046875 C-17.19497192 174.94780884 -17.19497192 174.94780884 -15.68823242 175.86694336 C-13.83092793 177.00239201 -11.98145322 178.1507953 -10.1418457 179.31469727 C-4.85567099 182.53225856 -0.07625782 184.97003457 6.25 184.3125 C9.18611616 183.35882456 11.65188504 181.96435553 14.25 180.3125 C15.17280762 179.74039795 15.17280762 179.74039795 16.11425781 179.15673828 C18.05384009 177.92352197 19.96484386 176.6532705 21.875 175.375 C28.72248208 170.8683653 35.6877728 166.59914832 42.75 162.4375 C44.1105249 161.63517944 44.1105249 161.63517944 45.49853516 160.81665039 C51.03839631 157.56733811 56.62053726 154.403893 62.25 151.3125 C62.25 153.9525 62.25 156.5925 62.25 159.3125 C61.29468384 159.83082397 61.29468384 159.83082397 60.32006836 160.35961914 C46.16003963 168.07717034 32.50120081 176.1767277 19.0859375 185.1328125 C6.53698335 193.46511361 6.53698335 193.46511361 0.25 192.3125 C-2.52631335 190.76400912 -5.11545728 189.06924621 -7.7109375 187.234375 C-10.81133419 185.27371283 -13.88796067 183.8880776 -17.24658203 182.44238281 C-21.95970143 180.31518205 -26.46510999 177.79176066 -31 175.3125 C-32.04486572 174.74362061 -33.08973145 174.17474121 -34.16625977 173.58862305 C-50.16889393 164.84242044 -50.16889393 164.84242044 -57.26171875 160.5769043 C-61.37376116 158.11673849 -65.25540869 156.04254325 -69.80078125 154.5 C-74.72495924 152.67029175 -78.83012245 150.84912648 -81.75 146.3125 C-84.25017441 137.41513037 -83.29918778 127.72974236 -82.92138672 118.58886719 C-82.6997115 112.74757933 -82.73573531 106.91469732 -82.78515625 101.0703125 C-82.80085593 98.93896599 -82.81639908 96.80761832 -82.83178711 94.67626953 C-82.83951141 93.62038635 -82.84723572 92.56450317 -82.85519409 91.47662354 C-82.90979578 82.75364668 -82.88118716 74.03462964 -82.75 65.3125 C-82.74206421 64.46526367 -82.73412842 63.61802734 -82.72595215 62.74511719 C-82.69583927 60.39096469 -82.63154164 58.04053327 -82.5546875 55.6875 C-82.52101074 54.37523437 -82.48733398 53.06296875 -82.45263672 51.7109375 C-81.56416764 47.41368607 -80.14291649 46.03214384 -76.75 43.3125 C-74.00537109 41.54248047 -74.00537109 41.54248047 -71.0234375 39.9296875 C-69.36634766 39.02355713 -69.36634766 39.02355713 -67.67578125 38.09912109 C-67.09650879 37.78738953 -66.51723633 37.47565796 -65.92041016 37.15447998 C-64.09443315 36.17103717 -62.27499031 35.17640168 -60.45703125 34.17822266 C-58.01793731 32.83901014 -55.57752281 31.50227623 -53.13574219 30.16796875 C-41.07309107 23.55734368 -29.41507287 16.63668908 -18.15234375 8.72607422 C-5.33251084 -0.27418939 -5.33251084 -0.27418939 0 0 Z " fill="#E9E9E9" transform="translate(99.75,11.6875)"/>
<path d="M0 0 C2.76823456 2.05385145 4.71225068 3.63192663 5.47265625 7.08203125 C5.5 9.25 5.5 9.25 5 12.9375 C4 13.9375 4 13.9375 0.91015625 14.0703125 C-0.35957031 14.06773438 -1.62929687 14.06515625 -2.9375 14.0625 C-4.83822266 14.06636719 -4.83822266 14.06636719 -6.77734375 14.0703125 C-10 13.9375 -10 13.9375 -12 12.9375 C-12.05420701 15.50028699 -12.09377007 18.06191483 -12.125 20.625 C-12.14175781 21.34623047 -12.15851563 22.06746094 -12.17578125 22.81054688 C-12.21391569 26.98626781 -11.8789919 30.1869138 -10 33.9375 C-9.01 33.4425 -9.01 33.4425 -8 32.9375 C-4.8559948 32.97799655 -1.72502293 33.06283395 1.4140625 33.24023438 C4.91732822 33.33333297 6.60761669 33.26274796 9.3515625 30.98828125 C9.89554688 30.31152344 10.43953125 29.63476562 11 28.9375 C13.81824192 27.52837904 16.17251282 27.82566447 19.3203125 27.83984375 C20.45227051 27.84234131 21.58422852 27.84483887 22.75048828 27.84741211 C24.91587158 27.86106812 24.91587158 27.86106812 27.125 27.875 C31.70375 27.895625 36.2825 27.91625 41 27.9375 C41 45.7575 41 63.5775 41 81.9375 C36.04842028 79.10802587 32.98252026 77.28032288 29.0625 73.5625 C25.35513792 70.11062229 21.59350401 67.06196318 17.3984375 64.2265625 C16.93695313 63.80117187 16.47546875 63.37578125 16 62.9375 C16 61.9475 16 60.9575 16 59.9375 C15.34628418 60.03885254 14.69256836 60.14020508 14.01904297 60.24462891 C-16.71596397 64.88703632 -16.71596397 64.88703632 -29.23046875 57.25390625 C-32.26654483 54.99528011 -33.78295466 53.58863602 -35 49.9375 C-36.2291278 34.98647007 -31.89985178 21.56177294 -24 8.9375 C-18.25123231 2.29737286 -9.10022 -4.83449187 0 0 Z " fill="#F2F1F2" transform="translate(100,65.0625)"/>
<path d="M0 0 C-1.29869221 4.28568429 -3.45471828 6.77880789 -6.5625 9.86328125 C-15.04409688 22.47043748 -9.48822076 46.79520095 -8.5 61.0625 C-7.57805349 74.39566151 -6.73477324 87.62937859 -7 101 C-5.67053345 101.40835083 -5.67053345 101.40835083 -4.31420898 101.82495117 C-1.25481119 102.909657 1.24837424 104.14443643 4.02734375 105.80078125 C5.44575562 106.63863159 5.44575562 106.63863159 6.89282227 107.4934082 C7.89756592 108.0937085 8.90230957 108.69400879 9.9375 109.3125 C12.09031933 110.58473295 14.24398725 111.85553088 16.3984375 113.125 C17.49381836 113.77082031 18.58919922 114.41664063 19.71777344 115.08203125 C24.7994465 118.05150637 29.92924433 120.93341312 35.0625 123.8125 C41.57899586 127.47169528 48.04839958 131.18500511 54.4375 135.0625 C55.61546807 135.77022637 56.79382561 136.47730507 57.97265625 137.18359375 C59.77952992 138.26771795 61.58108611 139.36090521 63.37109375 140.47265625 C68.51034861 143.42797825 72.41557573 143.46082622 78 142 C81.6165981 140.23228802 84.87093586 138.02274488 88.1875 135.75 C90.12030476 134.47209208 92.05526669 133.19744185 93.9921875 131.92578125 C94.97928711 131.27432129 95.96638672 130.62286133 96.98339844 129.95166016 C101.84405529 126.80694578 106.81919352 123.86544961 111.8125 120.9375 C112.70026123 120.41446289 113.58802246 119.89142578 114.50268555 119.35253906 C119.95749011 116.15348851 125.45797488 113.04529954 131 110 C131 112.64 131 115.28 131 118 C130.04468384 118.51832397 130.04468384 118.51832397 129.07006836 119.04711914 C114.91003963 126.76467034 101.25120081 134.8642277 87.8359375 143.8203125 C75.28698335 152.15261361 75.28698335 152.15261361 69 151 C66.22368665 149.45150912 63.63454272 147.75674621 61.0390625 145.921875 C57.93866581 143.96121283 54.86203933 142.5755776 51.50341797 141.12988281 C46.79029857 139.00268205 42.28489001 136.47926066 37.75 134 C36.70513428 133.43112061 35.66026855 132.86224121 34.58374023 132.27612305 C18.58110607 123.52992044 18.58110607 123.52992044 11.48828125 119.2644043 C7.37623884 116.80423849 3.49459131 114.73004325 -1.05078125 113.1875 C-5.97495924 111.35779175 -10.08012245 109.53662648 -13 105 C-15.50017441 96.10263037 -14.54918778 86.41724236 -14.17138672 77.27636719 C-13.9497115 71.43507933 -13.98573531 65.60219732 -14.03515625 59.7578125 C-14.05085593 57.62646599 -14.06639908 55.49511832 -14.08178711 53.36376953 C-14.08951141 52.30788635 -14.09723572 51.25200317 -14.10519409 50.16412354 C-14.15979578 41.44114668 -14.13118716 32.72212964 -14 24 C-13.99206421 23.15276367 -13.98412842 22.30552734 -13.97595215 21.43261719 C-13.94583927 19.07846469 -13.88154164 16.72803327 -13.8046875 14.375 C-13.77101074 13.06273438 -13.73733398 11.75046875 -13.70263672 10.3984375 C-12.62803825 5.20093555 -9.54357014 3.1025501 -5.375 0.125 C-3 -1 -3 -1 0 0 Z " fill="#EAEAEA" transform="translate(31,53)"/>
<path d="M0 0 C0.495 1.485 0.495 1.485 1 3 C3.64 2.34 6.28 1.68 9 1 C8 4 8 4 5.91796875 5.22338867 C5.01691406 5.6176001 4.11585937 6.01181152 3.1875 6.41796875 C1.69669922 7.09375977 1.69669922 7.09375977 0.17578125 7.78320312 C-1.90804873 8.7046507 -3.99392918 9.62147795 -6.08203125 10.53320312 C-14.10442325 14.18395789 -21.92925167 18.17348306 -25.546875 26.60546875 C-27.03057818 36.3653061 -26.27554088 46.6162158 -26.0982666 56.46707153 C-26.00653738 61.81312304 -26.02340004 67.15028643 -26.08734131 72.49662781 C-26.11661157 76.37743127 -26.07556143 80.25564727 -26.02038574 84.13607788 C-26.00688732 86.03242406 -26.02059637 87.92917526 -26.06262207 89.82510376 C-26.57260241 99.86041011 -26.57260241 99.86041011 -22.54745483 108.6126709 C-18.75852098 111.5401437 -14.52641516 113.36626568 -10.10198975 115.12963867 C-7.015489 116.40765199 -4.16760543 118.04808551 -1.26953125 119.703125 C-0.20943848 120.28489502 0.8506543 120.86666504 1.94287109 121.46606445 C12.63771251 127.34621541 23.17068107 133.40136879 33.46557617 139.96386719 C37.24468827 142.36264486 40.77600627 144.45739426 45 146 C46.8125 147.625 46.8125 147.625 48 149 C40.26960626 149 35.14336345 145.2853293 28.87304688 141.19873047 C25.57196479 139.08607236 22.19306086 137.10709666 18.8125 135.125 C17.74563965 134.49791138 17.74563965 134.49791138 16.65722656 133.8581543 C10.66985059 130.35616722 4.61951246 126.97320164 -1.45507812 123.62524414 C-4.98702908 121.67811326 -8.50878594 119.71866354 -12 117.69921875 C-12.93743042 117.1570874 -12.93743042 117.1570874 -13.89379883 116.60400391 C-15.56006046 115.63649715 -17.22350916 114.66415032 -18.88671875 113.69140625 C-22.15207831 111.91737778 -25.58432177 110.4638621 -29 109 C-29 84.58 -29 60.16 -29 35 C-29.66 35 -30.32 35 -31 35 C-31 60.08 -31 85.16 -31 111 C-31.33 111 -31.66 111 -32 111 C-32.52801986 102.94944796 -33.04996007 94.8985325 -33.56460571 86.84711552 C-33.80387931 83.10662435 -34.04507467 79.36627987 -34.29101562 75.6262207 C-37.50309747 26.71102491 -37.50309747 26.71102491 -30.5625 17.375 C-22.65658145 8.96527292 -10.37477738 4.66298054 0 0 Z " fill="#A3A3A3" transform="translate(56,43)"/>
<path d="M0 0 C0.66 0 1.32 0 2 0 C2 24.42 2 48.84 2 74 C4.97 74.99 7.94 75.98 11 77 C13.71306882 78.3578923 16.3167418 79.73757189 18.9375 81.25 C20.06164307 81.88711914 20.06164307 81.88711914 21.20849609 82.53710938 C23.81058666 84.0162693 26.40506151 85.50833155 29 87 C31.12877736 88.21376776 33.25769041 89.42729755 35.38671875 90.640625 C56.22712699 102.55853894 56.22712699 102.55853894 66.28173828 109.11914062 C69.13370845 110.95808971 71.61000273 112.48231569 75 113 C75.55494141 111.55947266 75.55494141 111.55947266 76.12109375 110.08984375 C78 107 78 107 80.66015625 106.06640625 C82.34431641 105.81697266 82.34431641 105.81697266 84.0625 105.5625 C92.31920636 103.90609456 99.18306105 99.861271 106.375 95.625 C107.47980713 94.9760376 108.58461426 94.3270752 109.72290039 93.65844727 C115.34984939 90.30128467 120.81617049 86.84675467 126.08447266 82.94677734 C128 82 128 82 130.24755859 82.34619141 C130.82586426 82.56194824 131.40416992 82.77770508 132 83 C128.1956883 85.31154878 124.39115327 87.62272945 120.58642578 89.93359375 C119.2966533 90.71702538 118.0069381 91.50055131 116.71728516 92.28417969 C109.15760963 96.87754896 101.59226526 101.46059191 94 106 C94.33 107.65 94.66 109.3 95 111 C82.2085708 120.15722876 82.2085708 120.15722876 75 119 C70.71464537 117.5140566 66.88542548 115.30796113 63 113 C62.32662598 112.60119629 61.65325195 112.20239258 60.95947266 111.79150391 C57.79207444 109.90660183 54.63259323 108.00926726 51.48242188 106.09570312 C42.83698342 100.85237531 34.05743717 95.85316955 25.25976562 90.87158203 C23.07002727 89.62868045 20.89017114 88.36814298 18.72247314 87.08718872 C16.23370963 85.64513432 13.73224278 84.41222098 11.09771729 83.26019287 C6.99255542 81.34727399 3.1012981 79.36782154 0 76 C-2.06341835 70.12769162 -1.76545764 64.645647 -1.46484375 58.49609375 C-1.4368256 56.80511432 -1.41549304 55.11401214 -1.40052795 53.42286682 C-1.34355455 48.99552368 -1.19655461 44.57569961 -1.02996826 40.15130615 C-0.87582044 35.62729659 -0.80787057 31.10205687 -0.73242188 26.57617188 C-0.57209573 17.71416379 -0.31651937 8.85770956 0 0 Z " fill="#1F1F1F" transform="translate(25,78)"/>
<path d="M0 0 C0.77988281 0.14695312 1.55976562 0.29390625 2.36328125 0.4453125 C5.16266778 1.03422048 7.14422367 1.96837425 9.625 3.375 C10.38039062 3.79523437 11.13578125 4.21546875 11.9140625 4.6484375 C14 6 14 6 15.3359375 7.4140625 C17.87758945 9.83638806 20.9349018 11.33863433 24 13 C24.72767578 13.39848145 25.45535156 13.79696289 26.20507812 14.20751953 C30.93803345 16.80022101 30.93803345 16.80022101 35.6796875 19.37695312 C36.45054687 19.80041016 37.22140625 20.22386719 38.015625 20.66015625 C38.70946289 21.03793213 39.40330078 21.41570801 40.11816406 21.80493164 C42 23 42 23 43.51855469 24.57202148 C45.90537017 26.87269448 48.84942462 27.22721736 52 28 C52 30.64 52 33.28 52 36 C47.14798675 34.59566539 43.08867588 32.43477259 38.8125 29.8125 C33.31352224 26.49581544 27.76493992 23.29318143 22.12890625 20.21484375 C21.53207535 19.88793045 20.93524445 19.56101715 20.32032776 19.22419739 C17.33694274 17.59113839 14.34943705 15.96704382 11.35473633 14.35473633 C5.27196203 11.02782579 0.12444772 7.65858884 -5 3 C-8.05712122 1.82918762 -9.77510639 1.56016346 -12.87109375 2.671875 C-17.24348075 4.75152885 -21.30239818 7.37927529 -25.3359375 10.046875 C-27 11 -27 11 -29 11 C-28.67 9.68 -28.34 8.36 -28 7 C-29.65 7.33 -31.3 7.66 -33 8 C-23.92519096 -1.61596738 -12.03799169 -7.40799489 0 0 Z " fill="#9C9B9C" transform="translate(110,23)"/>
<path d="M0 0 C0.33 0 0.66 0 1 0 C1.03425331 0.93602554 1.03425331 0.93602554 1.06919861 1.89096069 C1.31062538 8.47914083 1.5544463 15.06722949 1.79956055 21.65527344 C1.8903243 24.10284261 1.98050945 26.55043332 2.07006836 28.99804688 C2.28451953 34.85412127 2.50847625 40.70938722 2.75488281 46.56420898 C2.92064782 50.5706782 3.02995379 54.56872872 3.06542969 58.57836914 C3.08311905 59.40909943 3.10080841 60.23982971 3.11903381 61.09573364 C3.15041384 62.5949102 3.15884839 64.09484543 3.13816833 65.59420776 C3.21750505 68.31073214 3.43881511 70.38973941 5.31980896 72.43522644 C8.22751784 74.65581212 11.37601269 76.32783132 14.76171875 77.68359375 C21.15290909 80.42124732 27.13139186 83.84770163 33.1875 87.25 C34.34121094 87.8879248 35.49492188 88.52584961 36.68359375 89.18310547 C45.10807128 93.85826644 53.34148945 98.78515429 61.46557617 103.96386719 C65.24468827 106.36264486 68.77600627 108.45739426 73 110 C74.8125 111.625 74.8125 111.625 76 113 C68.26960626 113 63.14336345 109.2853293 56.87304688 105.19873047 C53.57196479 103.08607236 50.19306086 101.10709666 46.8125 99.125 C45.74563965 98.49791138 45.74563965 98.49791138 44.65722656 97.8581543 C38.66985059 94.35616722 32.61951246 90.97320164 26.54492188 87.62524414 C23.01297092 85.67811326 19.49121406 83.71866354 16 81.69921875 C15.37504639 81.33779785 14.75009277 80.97637695 14.10620117 80.60400391 C12.43993954 79.63649715 10.77649084 78.66415032 9.11328125 77.69140625 C6.84228111 76.45760065 4.67426528 75.39350979 2.30541992 74.39428711 C1.21463135 73.93417236 0.12384277 73.47405762 -1 73 C-1.02563746 65.33602626 -1.04298575 57.67206383 -1.05493164 50.00805664 C-1.05991884 47.40811754 -1.06671099 44.80818118 -1.07543945 42.20825195 C-1.12156197 28.10290006 -1.12954705 14.06776349 0 0 Z " fill="#939393" transform="translate(28,79)"/>
<path d="M0 0 C0.8674585 0.32363525 0.8674585 0.32363525 1.75244141 0.65380859 C-2.05187029 2.96535737 -5.85640532 5.27653804 -9.66113281 7.58740234 C-10.95090529 8.37083397 -12.24062049 9.1543599 -13.53027344 9.93798828 C-21.08994896 14.53135756 -28.65529334 19.11440051 -36.24755859 23.65380859 C-35.91755859 25.30380859 -35.58755859 26.95380859 -35.24755859 28.65380859 C-46.56610193 36.75661625 -46.56610193 36.75661625 -52.83349609 37.07568359 C-58.0869769 36.15759957 -62.69008709 33.3142615 -67.24755859 30.65380859 C-65.51318359 29.07177734 -65.51318359 29.07177734 -63.24755859 27.65380859 C-61.10693359 28.01708984 -61.10693359 28.01708984 -58.99755859 28.96630859 C-58.29115234 29.27181641 -57.58474609 29.57732422 -56.85693359 29.89208984 C-56.32583984 30.14345703 -55.79474609 30.39482422 -55.24755859 30.65380859 C-54.87759766 29.69345703 -54.50763672 28.73310547 -54.12646484 27.74365234 C-52.24755859 24.65380859 -52.24755859 24.65380859 -49.58740234 23.72021484 C-48.46462891 23.55392578 -47.34185547 23.38763672 -46.18505859 23.21630859 C-37.92835224 21.55990315 -31.06449754 17.5150796 -23.87255859 13.27880859 C-22.76775146 12.62984619 -21.66294434 11.98088379 -20.5246582 11.31225586 C-14.8977092 7.95509327 -9.4313881 4.50056326 -4.16308594 0.60058594 C-2.24755859 -0.34619141 -2.24755859 -0.34619141 0 0 Z " fill="#2C2B2B" transform="translate(155.24755859375,160.34619140625)"/>
<path d="M0 0 C0.66 0 1.32 0 2 0 C2.5625 2.625 2.5625 2.625 2 6 C0.46191406 7.35424805 0.46191406 7.35424805 -1.671875 8.69921875 C-2.48970459 9.21742188 -3.30753418 9.735625 -4.15014648 10.26953125 C-9.67597997 13.62489043 -15.23311399 16.92230392 -20.8125 20.1875 C-23.21648249 21.59488776 -25.61852045 23.00551874 -28.01953125 24.41796875 C-29.59891479 25.34258911 -29.59891479 25.34258911 -31.21020508 26.28588867 C-33.97832819 27.90104078 -33.97832819 27.90104078 -36.1862793 29.78637695 C-36.78480713 30.18687256 -37.38333496 30.58736816 -38 31 C-38.99 30.67 -39.98 30.34 -41 30 C-41.33 29.01 -41.66 28.02 -42 27 C-36.78228961 23.36317404 -31.42199482 20.02061064 -25.91796875 16.8359375 C-25.29189728 16.47340881 -24.66582581 16.11088013 -24.02078247 15.73736572 C-21.41567091 14.232058 -18.80841395 12.7305915 -16.19750977 11.23535156 C-14.26776128 10.1285525 -12.34264533 9.01402668 -10.41796875 7.8984375 C-9.28125732 7.24536621 -8.1445459 6.59229492 -6.97338867 5.91943359 C-4.24310067 4.15693057 -2.26043436 2.30301159 0 0 Z " fill="#212021" transform="translate(160,157)"/>
<path d="M0 0 C0.53625 0.53625 1.0725 1.0725 1.625 1.625 C1.625 2.615 1.625 3.605 1.625 4.625 C0.9959375 4.50640625 0.366875 4.3878125 -0.28125 4.265625 C-6.97266924 3.25788114 -10.73128745 3.99044911 -16.375 7.625 C-17.10203125 8.08132812 -17.8290625 8.53765625 -18.578125 9.0078125 C-19.96519768 9.88096977 -21.34385109 10.76774614 -22.7109375 11.671875 C-24.375 12.625 -24.375 12.625 -26.375 12.625 C-26.045 11.305 -25.715 9.985 -25.375 8.625 C-27.025 8.955 -28.675 9.285 -30.375 9.625 C-22.97868509 1.78762044 -10.62005802 -6.14845464 0 0 Z " fill="#9F9F9F" transform="translate(107.375,21.375)"/>
<path d="M0 0 C0.66 0 1.32 0 2 0 C2.33 24.75 2.66 49.5 3 75 C1.515 75.495 1.515 75.495 0 76 C0 50.92 0 25.84 0 0 Z " fill="#282727" transform="translate(25,78)"/>
<path d="M0 0 C1.35732116 0.406273 2.71069689 0.8257279 4.0625 1.25 C5.19365234 1.59804688 5.19365234 1.59804688 6.34765625 1.953125 C9.08543378 3.03372055 11.55420486 4.39046915 14.08862305 5.88085938 C16.09022915 7.05283056 18.11444187 8.17433764 20.1484375 9.2890625 C20.84324219 9.67320313 21.53804687 10.05734375 22.25390625 10.453125 C23.6892375 11.24612569 25.12681118 12.03507883 26.56640625 12.8203125 C31.88775365 15.77550731 31.88775365 15.77550731 33 18 C30.12227887 18.91584261 27.96283404 19.41260748 25.11767578 18.19335938 C23.04518563 16.94645335 21.05090591 15.62702283 19.0625 14.25 C14.14738335 10.93896043 9.50582504 8.2117995 4 6 C2.31464976 5.03182008 0.63978318 4.04349839 -1 3 C-0.67 2.01 -0.34 1.02 0 0 Z " fill="#272727" transform="translate(118,29)"/>
<path d="M0 0 C0 1.65 0 3.3 0 5 C-0.96421875 5.53109375 -1.9284375 6.0621875 -2.921875 6.609375 C-4.19811241 7.3225665 -5.47414324 8.03612776 -6.75 8.75 C-7.38421875 9.09804688 -8.0184375 9.44609375 -8.671875 9.8046875 C-12.29658867 11.84358894 -15.19784412 13.85818887 -18 17 C-18.33 16.34 -18.66 15.68 -19 15 C-19.33 15.33 -19.66 15.66 -20 16 C-21.66617115 16.04063832 -23.33388095 16.042721 -25 16 C-24.78515625 14.18359375 -24.78515625 14.18359375 -24 12 C-21.99609375 10.47265625 -21.99609375 10.47265625 -19.4375 9.0625 C-18.53773437 8.55460937 -17.63796875 8.04671875 -16.7109375 7.5234375 C-15.81632812 7.02070312 -14.92171875 6.51796875 -14 6 C-11.88538582 4.6774821 -9.78722395 3.33246806 -7.69140625 1.98046875 C-5.04092014 0.44404378 -3.06126346 0 0 0 Z " fill="#312F30" transform="translate(82,30)"/>
<path d="M0 0 C0.33 0.99 0.66 1.98 1 3 C3.64 2.34 6.28 1.68 9 1 C8 4 8 4 5.95874023 5.25854492 C5.08419189 5.66177979 4.20964355 6.06501465 3.30859375 6.48046875 C1.89223633 7.14272461 1.89223633 7.14272461 0.44726562 7.81835938 C-0.54595703 8.27017578 -1.53917969 8.72199219 -2.5625 9.1875 C-3.55958984 9.65091797 -4.55667969 10.11433594 -5.58398438 10.59179688 C-8.05186594 11.73717732 -10.52380545 12.87273227 -13 14 C-13.33 13.34 -13.66 12.68 -14 12 C-14.66 11.67 -15.32 11.34 -16 11 C-16 10.34 -16 9.68 -16 9 C-14.0234375 7.59765625 -14.0234375 7.59765625 -11.375 6.0625 C-10.4675 5.53527344 -9.56 5.00804687 -8.625 4.46484375 C-5.78570646 2.88041655 -2.93785867 1.39161727 0 0 Z " fill="#9C9C9C" transform="translate(56,43)"/>
<path d="M0 0 C1.093125 0.185625 2.18625 0.37125 3.3125 0.5625 C6.93624133 1.2578068 6.93624133 1.2578068 10 0 C10.350625 0.45375 10.70125 0.9075 11.0625 1.375 C13.77096206 3.64661334 16.60795328 4.16798854 20 5 C20 7.64 20 10.28 20 13 C15.31086906 11.62670368 11.31613921 9.62818799 7.1875 7.0625 C6.60291016 6.71509766 6.01832031 6.36769531 5.41601562 6.00976562 C1.12270332 3.36810997 1.12270332 3.36810997 0 0 Z " fill="#9E9D9E" transform="translate(142,46)"/>
<path d="M0 0 C0.57886963 0.21591797 1.15773926 0.43183594 1.75415039 0.65429688 C-6.39053577 5.61734345 -14.5417521 10.56942982 -22.70141602 15.5078125 C-24.8720074 16.82156284 -27.04081739 18.13806497 -29.20825195 19.45703125 C-31.59111762 20.90572804 -33.97960176 22.34449445 -36.37084961 23.77929688 C-37.39746704 24.40747314 -37.39746704 24.40747314 -38.44482422 25.04833984 C-40.00954934 25.97962178 -41.62329613 26.8278763 -43.24584961 27.65429688 C-43.90584961 27.32429688 -44.56584961 26.99429688 -45.24584961 26.65429688 C-38.71060675 21.36204366 -31.62063721 17.27448169 -24.30834961 13.15429688 C-22.04753365 11.87605141 -19.78838593 10.59485037 -17.53100586 9.31054688 C-16.45866699 8.70082031 -15.38632813 8.09109375 -14.28149414 7.46289062 C-10.75741921 5.36329701 -7.43232504 3.0580826 -4.14599609 0.60546875 C-2.24584961 -0.34570312 -2.24584961 -0.34570312 0 0 Z " fill="#8C8A8B" transform="translate(155.245849609375,160.345703125)"/>
<path d="M0 0 C0.33 0 0.66 0 1 0 C2.08364362 26.59538119 2.08364362 26.59538119 2.25 39.625 C2.27126953 40.45225586 2.29253906 41.27951172 2.31445312 42.13183594 C2.328125 44.4140625 2.328125 44.4140625 2 48 C1.01 48.66 0.02 49.32 -1 50 C-1.20638953 14.11044893 -1.20638953 14.11044893 0 0 Z " fill="#8A898A" transform="translate(28,79)"/>
<path d="M0 0 C-1.05875074 3.40312738 -2.00902154 6.01353231 -4 9 C-6.625 9.1875 -6.625 9.1875 -9 9 C-9 8.01 -9 7.02 -9 6 C-12.63 5.67 -16.26 5.34 -20 5 C-19.67 4.01 -19.34 3.02 -19 2 C-16.20849551 1.66525856 -13.41681356 1.33214502 -10.625 1 C-9.43390625 0.85691406 -9.43390625 0.85691406 -8.21875 0.7109375 C-2.2265625 0 -2.2265625 0 0 0 Z " fill="#313030" transform="translate(111,125)"/>
<path d="M0 0 C1.65 0 3.3 0 5 0 C5.84327749 8.35748222 6.12190678 16.60197746 6 25 C5.67 25 5.34 25 5 25 C4.67 21.7 4.34 18.4 4 15 C2.68 15.33 1.36 15.66 0 16 C0 10.72 0 5.44 0 0 Z " fill="#E4E3E3" transform="translate(18,126)"/>
<path d="M0 0 C3.99500618 1.3697164 6.80009492 3.25722422 10 6 C8.76265016 7.03613033 7.50955363 8.05347802 6.25 9.0625 C5.55390625 9.63097656 4.8578125 10.19945312 4.140625 10.78515625 C2 12 2 12 -0.265625 11.68359375 C-0.83796875 11.45800781 -1.4103125 11.23242188 -2 11 C-2.05399736 9.54207116 -2.09279177 8.08357288 -2.125 6.625 C-2.15980469 5.40683594 -2.15980469 5.40683594 -2.1953125 4.1640625 C-2 2 -2 2 0 0 Z " fill="#131212" transform="translate(89,197)"/>
<path d="M0 0 C2.76223278 2.76223278 2.57856291 5.20706617 3 9 C-0.01217112 8.35550393 -2.51655836 7.34977818 -5.25 5.9375 C-5.95640625 5.57527344 -6.6628125 5.21304687 -7.390625 4.83984375 C-7.92171875 4.56269531 -8.4528125 4.28554688 -9 4 C-9 3.01 -9 2.02 -9 1 C-5.66429909 -1.10025613 -3.74952434 -1.18406032 0 0 Z " fill="#1E1E1E" transform="translate(116,12)"/>
<path d="M0 0 C5.81261371 1.73982995 10.83169994 3.8110489 16 7 C14.68 7.99 13.36 8.98 12 10 C8.04 8.02 4.08 6.04 0 4 C0 2.68 0 1.36 0 0 Z " fill="#2D2C2C" transform="translate(118,29)"/>
<path d="M0 0 C1.30089831 2.60179663 1.16840078 4.5969188 1.1875 7.5 C1.20167969 8.4796875 1.21585938 9.459375 1.23046875 10.46875 C1 13 1 13 -1 15 C-1.99 14.67 -2.98 14.34 -4 14 C-4 9.71 -4 5.42 -4 1 C-2 0 -2 0 0 0 Z " fill="#F2F2F2" transform="translate(22,141)"/>
<path d="M0 0 C1.98 0.66 3.96 1.32 6 2 C6 4.31 6 6.62 6 9 C-0.5404266 8.48702536 -3.46925843 6.53074157 -8 2 C-6.00045254 1.95745644 -3.99958364 1.95919217 -2 2 C-1.67 2.33 -1.34 2.66 -1 3 C-0.67 2.01 -0.34 1.02 0 0 Z " fill="#DEDEDE" transform="translate(156,42)"/>
<path d="M0 0 C-1.38081223 4.1424367 -3.59825558 5.32203099 -7 8 C-7.33 7.34 -7.66 6.68 -8 6 C-8.33 6.33 -8.66 6.66 -9 7 C-10.66617115 7.04063832 -12.33388095 7.042721 -14 7 C-13.875 5.1875 -13.875 5.1875 -13 3 C-8.61602577 0.07735051 -5.19863564 -0.31191814 0 0 Z " fill="#2C2C2C" transform="translate(71,39)"/>
<path d="M0 0 C0.5625 2.625 0.5625 2.625 0 6 C-2.7720515 8.39920247 -5.80672254 10.21328523 -9 12 C-9.66 10.68 -10.32 9.36 -11 8 C-3.42105263 0 -3.42105263 0 0 0 Z " fill="#242324" transform="translate(162,157)"/>
<path d="M0 0 C8.30707027 2.25276482 14.85752853 6.35242583 22 11 C21.67 11.99 21.34 12.98 21 14 C13.74 10.04 6.48 6.08 -1 2 C-0.67 1.34 -0.34 0.68 0 0 Z " fill="#8E8D8D" transform="translate(120,34)"/>
<path d="M0 0 C-0.90748185 2.34432812 -1.49216193 3.69905892 -3.6875 5 C-7.44602659 5 -9.86347982 2.99048396 -13 1 C-8.45682439 -3.975859 -5.78809208 -2.73023211 0 0 Z " fill="#E0E0E0" transform="translate(115,19)"/>
<path d="M0 0 C-9.22551253 6.70387244 -9.22551253 6.70387244 -15 7 C-14.0625 4.125 -14.0625 4.125 -12 1 C-7.85631294 -0.73618173 -4.28304188 -1.42768063 0 0 Z " fill="#1A1819" transform="translate(115,184)"/>
<path d="M0 0 C3.73942719 0.60313342 6.74706776 1.67053878 10.125 3.375 C11.39730469 4.00535156 11.39730469 4.00535156 12.6953125 4.6484375 C14.84763868 5.91064912 16.34549781 7.1508505 18 9 C10.417038 8.85957478 5.76141865 5.81692379 0 1 C0 0.67 0 0.34 0 0 Z " fill="#939292" transform="translate(86,183)"/>
<path d="M0 0 C2.64 1.32 5.28 2.64 8 4 C7.67 4.99 7.34 5.98 7 7 C2.87248551 6.39301257 -0.3321148 4.96189209 -4 3 C-2.68 2.01 -1.36 1.02 0 0 Z " fill="#232323" transform="translate(92,188)"/>
<path d="M0 0 C0.3125 2.8125 0.3125 2.8125 0 6 C-2.38892501 7.88599343 -3.91851558 9 -7 9 C-6.51058824 3.49411765 -6.51058824 3.49411765 -4.0625 1.125 C-2 0 -2 0 0 0 Z " fill="#110F10" transform="translate(162,151)"/>
<path d="M0 0 C0.1875 2.875 0.1875 2.875 0 6 C-0.99 6.66 -1.98 7.32 -3 8 C-3.99 6.68 -4.98 5.36 -6 4 C-2.25 0 -2.25 0 0 0 Z " fill="#343233" transform="translate(162,157)"/>
<path d="M0 0 C0.57234375 0.21527344 1.1446875 0.43054688 1.734375 0.65234375 C0.49493224 1.52175869 -0.75769559 2.37239832 -2.015625 3.21484375 C-2.71171875 3.69050781 -3.4078125 4.16617188 -4.125 4.65625 C-6.265625 5.65234375 -6.265625 5.65234375 -8.53125 5.3046875 C-9.10359375 5.08941406 -9.6759375 4.87414062 -10.265625 4.65234375 C-9.02618224 3.78292881 -7.77355441 2.93228918 -6.515625 2.08984375 C-5.81953125 1.61417969 -5.1234375 1.13851562 -4.40625 0.6484375 C-2.265625 -0.34765625 -2.265625 -0.34765625 0 0 Z " fill="#858384" transform="translate(155.265625,160.34765625)"/>
<path d="M0 0 C0.625 1.875 0.625 1.875 1 4 C0.34 4.66 -0.32 5.32 -1 6 C-1.99 6 -2.98 6 -4 6 C-4.33 6.66 -4.66 7.32 -5 8 C-5.66 7.67 -6.32 7.34 -7 7 C-5.66667905 3.00003714 -3.5042173 2.16217663 0 0 Z " fill="#121011" transform="translate(86,31)"/>
<path d="M0 0 C2.31 0.66 4.62 1.32 7 2 C6.01 2.99 5.02 3.98 4 5 C1.525 4.01 1.525 4.01 -1 3 C-0.67 2.01 -0.34 1.02 0 0 Z " fill="#333233" transform="translate(118,29)"/>
<path d="M0 0 C0.66 0.33 1.32 0.66 2 1 C1.67 1.99 1.34 2.98 1 4 C0.34 4 -0.32 4 -1 4 C-0.67 4.99 -0.34 5.98 0 7 C-0.99 7.33 -1.98 7.66 -3 8 C-3.66 6.35 -4.32 4.7 -5 3 C-2.625 1.4375 -2.625 1.4375 0 0 Z " fill="#E3E2E2" transform="translate(46,42)"/>
<path d="M0 0 C0.99 0.33 1.98 0.66 3 1 C3.33 2.98 3.66 4.96 4 7 C2.02 6.01 0.04 5.02 -2 4 C-2 3.34 -2 2.68 -2 2 C-1.34 2 -0.68 2 0 2 C0 1.34 0 0.68 0 0 Z " fill="#232323" transform="translate(75,178)"/>
<path d="M0 0 C4.875 1.75 4.875 1.75 6 4 C3.125 4.625 3.125 4.625 0 5 C-0.66 4.34 -1.32 3.68 -2 3 C-1.34 2.67 -0.68 2.34 0 2 C0 1.34 0 0.68 0 0 Z " fill="#3A3A3A" transform="translate(145,43)"/>
<path d="M0 0 C3.77545388 1.09068668 6.47043472 1.9083091 9 5 C7.02 5.99 7.02 5.99 5 7 C4.67 5.68 4.34 4.36 4 3 C2.68 2.67 1.36 2.34 0 2 C0 1.34 0 0.68 0 0 Z " fill="#5C5C5C" transform="translate(125,32)"/>
<path d="M0 0 C0 1.98 0 3.96 0 6 C-1.32 5.67 -2.64 5.34 -4 5 C-3.625 3.0625 -3.625 3.0625 -3 1 C-1 0 -1 0 0 0 Z " fill="#EFEFEF" transform="translate(162,45)"/>
<path d="M0 0 C5.75 -0.125 5.75 -0.125 8 1 C7.34 2.32 6.68 3.64 6 5 C3.98079663 3.69593116 1.98075027 2.36176581 0 1 C0 0.67 0 0.34 0 0 Z " fill="#D8D8D8" transform="translate(148,44)"/>
<path d="M0 0 C1.65 1.32 3.3 2.64 5 4 C1.52176885 5.15941038 -0.45895578 4.70820884 -4 4 C-2.68 2.68 -1.36 1.36 0 0 Z " fill="#747474" transform="translate(69,35)"/>
</svg>
