<?xml version="1.0" encoding="UTF-8"?>
<svg version="1.1" xmlns="http://www.w3.org/2000/svg" width="512" height="512">
<path d="M0 0 C2.39632831 -0.0043531 4.79265523 -0.00953823 7.1889801 -0.01548767 C12.9972276 -0.02744419 18.80542124 -0.03003661 24.61367955 -0.02768741 C29.34148078 -0.02589622 34.06926807 -0.02767096 38.79706764 -0.03191185 C39.47284813 -0.03250704 40.14862861 -0.03310223 40.84488729 -0.03371545 C42.21826619 -0.03492735 43.59164508 -0.03614149 44.96502397 -0.03735783 C57.81504021 -0.04820833 70.66503013 -0.04608301 83.51504783 -0.03997298 C95.23237341 -0.03480897 106.94961573 -0.04605009 118.66692486 -0.0650712 C130.73822364 -0.08451457 142.80948316 -0.09269408 154.88079768 -0.08894795 C161.6418242 -0.08704535 168.40277994 -0.08943056 175.16379356 -0.10366249 C181.52755292 -0.11631316 187.89114674 -0.11422865 194.25490379 -0.1012516 C196.57749998 -0.09890178 198.90010808 -0.1015626 201.22269058 -0.10987473 C244.31047067 -0.25284106 282.09874014 14.03185124 313.2277832 44.2746582 C315.70462678 46.83654362 317.98528589 49.50620203 320.2277832 52.2746582 C320.98704102 53.19633789 321.74629883 54.11801758 322.52856445 55.06762695 C337.9533505 74.17685145 348.22948657 96.24698065 353.2277832 120.2746582 C353.40145007 121.09062879 353.57511694 121.90659937 353.75404644 122.74729633 C355.83393852 134.11219391 355.51629363 145.53404235 355.50244141 157.046875 C355.5067945 159.44320331 355.51197964 161.83953023 355.51792908 164.2358551 C355.52988559 170.0441026 355.53247802 175.85229624 355.53012881 181.66055455 C355.52833762 186.38835578 355.53011236 191.11614307 355.53435326 195.84394264 C355.53494845 196.51972313 355.53554363 197.19550361 355.53615686 197.89176229 C355.53736876 199.26514119 355.53858289 200.63852008 355.53979924 202.01189897 C355.55064974 214.86191521 355.54852442 227.71190513 355.54241439 240.56192283 C355.53725038 252.27924841 355.54849149 263.99649073 355.56751261 275.71379986 C355.58695598 287.78509864 355.59513548 299.85635816 355.59138936 311.92767268 C355.58948676 318.6886992 355.59187197 325.44965494 355.6061039 332.21066856 C355.61875456 338.57442792 355.61667006 344.93802174 355.60369301 351.30177879 C355.60134318 353.62437498 355.604004 355.94698308 355.61231613 358.26956558 C355.74474937 398.18283851 343.92517792 433.2771101 317.2277832 463.2746582 C316.16246576 464.56400213 315.0993834 465.85520241 314.0402832 467.1496582 C310.76994674 470.92809779 307.08941331 474.11398406 303.2277832 477.2746582 C301.83946289 478.4193457 301.83946289 478.4193457 300.4230957 479.5871582 C281.31096307 495.00193972 259.25253905 505.27696935 235.2277832 510.2746582 C234.41181262 510.44832507 233.59584204 510.62199194 232.75514507 510.80092144 C221.3902475 512.88081352 209.96839906 512.56316863 198.45556641 512.54931641 C196.0592381 512.5536695 193.66291118 512.55885464 191.2665863 512.56480408 C185.45833881 512.57676059 179.65014517 512.57935302 173.84188686 512.57700381 C169.11408562 512.57521262 164.38629834 512.57698736 159.65849876 512.58122826 C158.98271828 512.58182345 158.3069378 512.58241863 157.61067912 512.58303186 C156.23730022 512.58424376 154.86392133 512.58545789 153.49054243 512.58667424 C140.6405262 512.59752474 127.79053628 512.59539942 114.94051858 512.58928939 C103.22319299 512.58412538 91.50595067 512.59536649 79.78864155 512.61438761 C67.71734277 512.63383098 55.64608324 512.64201048 43.57476872 512.63826436 C36.81374221 512.63636176 30.05278646 512.63874697 23.29177284 512.6529789 C16.92801349 512.66562956 10.56441967 512.66354506 4.20066261 512.65056801 C1.87806643 512.64821818 -0.44454167 512.650879 -2.76712418 512.65919113 C-42.68039711 512.79162437 -77.7746687 500.97205292 -107.7722168 474.2746582 C-109.06156073 473.20934076 -110.352761 472.1462584 -111.6472168 471.0871582 C-115.42565638 467.81682174 -118.61154265 464.13628831 -121.7722168 460.2746582 C-122.9169043 458.88633789 -122.9169043 458.88633789 -124.0847168 457.4699707 C-139.49949831 438.35783807 -149.77452795 416.29941405 -154.7722168 392.2746582 C-154.94588367 391.45868762 -155.11955053 390.64271704 -155.29848003 389.80202007 C-157.37837212 378.4371225 -157.06072722 367.01527406 -157.046875 355.50244141 C-157.0512281 353.1061131 -157.05641323 350.70978618 -157.06236267 348.3134613 C-157.07431919 342.50521381 -157.07691161 336.69702017 -157.07456241 330.88876186 C-157.07277122 326.16096062 -157.07454596 321.43317334 -157.07878685 316.70537376 C-157.07967963 315.69170304 -157.07967963 315.69170304 -157.08059045 314.65755412 C-157.08180235 313.28417522 -157.08301649 311.91079633 -157.08423283 310.53741743 C-157.09508333 297.6874012 -157.09295801 284.83741128 -157.08684798 271.98739358 C-157.08168397 260.27006799 -157.09292509 248.55282567 -157.1119462 236.83551655 C-157.13138957 224.76421777 -157.13956908 212.69295824 -157.13582295 200.62164372 C-157.13392035 193.86061721 -157.13630556 187.09966146 -157.15053749 180.33864784 C-157.16318816 173.97488849 -157.16110365 167.61129467 -157.1481266 161.24753761 C-157.14577678 158.92494143 -157.1484376 156.60233333 -157.15674973 154.27975082 C-157.28440569 115.80627168 -146.43112974 80.56586735 -120.7722168 51.2746582 C-120.09288086 50.47415039 -119.41354492 49.67364258 -118.71362305 48.84887695 C-114.4079308 43.8549454 -109.88633679 39.43205506 -104.7722168 35.2746582 C-103.84924805 34.51411133 -102.9262793 33.75356445 -101.9753418 32.9699707 C-82.86515422 17.54851498 -60.79891651 7.27275142 -36.7722168 2.2746582 C-35.95624621 2.10099133 -35.14027563 1.92732447 -34.29957867 1.74839497 C-22.93468109 -0.33149712 -11.51283265 -0.01385222 0 0 Z M15.2277832 116.2746582 C14.50447528 119.97103362 14.56195441 123.60180917 14.60632324 127.35827637 C14.59993442 128.49016467 14.5935456 129.62205297 14.58696318 130.78824091 C14.57167585 134.58940918 14.59220094 138.38954147 14.61254883 142.19067383 C14.61181266 144.91234365 14.60358835 147.63397925 14.59573364 150.3556366 C14.5812038 156.9855578 14.5934442 163.61517288 14.61484689 170.24506509 C14.63885339 177.96479034 14.63714273 185.68444538 14.63454098 193.40419966 C14.63085032 207.17765179 14.65168036 220.95095964 14.68579102 234.72436523 C14.71888268 248.09126431 14.73304936 261.45801196 14.72680664 274.82495117 C14.72004319 289.37847133 14.72250157 303.93192804 14.74216604 318.48543882 C14.74320553 319.25497109 14.74424501 320.02450335 14.745316 320.81735477 C14.7474069 322.36294474 14.74951788 323.90853468 14.75164917 325.4541246 C14.75854591 330.83594295 14.75921389 336.21774176 14.75776672 341.5995636 C14.75632727 348.15768038 14.76601325 354.71567366 14.78971308 361.27374947 C14.80157642 364.6202361 14.80709502 367.96640528 14.80287552 371.31293297 C14.79917477 374.93916715 14.81386027 378.56486736 14.83337402 382.19104004 C14.8280461 383.25085791 14.82271817 384.31067578 14.81722879 385.40260935 C14.84136126 392.34334996 14.84136126 392.34334996 18.2277832 398.2746582 C25.35790094 403.97875239 36.38681383 402.42827966 45 402.43579102 C46.38221364 402.44042707 47.76442603 402.44545278 49.14663696 402.45083618 C52.87985052 402.46387659 56.61304617 402.47038735 60.34627891 402.47484684 C62.68077885 402.47778796 65.01527399 402.48189443 67.3497715 402.48635101 C74.6609395 402.49999686 81.97209642 402.5096807 89.28327626 402.5135529 C97.7118819 402.51804249 106.1403261 402.5356441 114.56888264 402.5645535 C121.09561071 402.58616124 127.62229328 402.59625651 134.14905673 402.59759402 C138.04311117 402.59864166 141.93701322 402.60454192 145.83102989 402.62241364 C149.48943051 402.63888123 153.14756385 402.6410564 156.80598831 402.63227463 C158.78618054 402.6311366 160.76636387 402.64485951 162.74650574 402.6590271 C163.9282135 402.65345795 165.10992126 402.64788879 166.32743835 402.64215088 C167.35222133 402.64361744 168.3770043 402.645084 169.4328413 402.646595 C172.72725086 402.20819156 174.57902116 401.26066282 177.2277832 399.2746582 C186.2598424 382.26462452 184.76544126 358.89437599 181.2746582 340.5871582 C180.02371751 336.62895781 178.19111439 333.23798939 175.2277832 330.2746582 C172.76334264 330.17965272 170.32703694 330.14907835 167.86230469 330.16113281 C166.70628754 330.16091377 166.70628754 330.16091377 165.5269165 330.16069031 C162.96754182 330.1613896 160.408239 330.16918275 157.84887695 330.17700195 C156.07910705 330.17886607 154.30933664 330.18029 152.53956604 330.18128967 C147.87226955 330.18511532 143.20500397 330.194946 138.53771973 330.20599365 C132.9427072 330.21800114 127.34768437 330.22260979 121.75266266 330.22844696 C113.24434798 330.23815774 104.73610119 330.25731395 96.2277832 330.2746582 C96.2277832 316.0846582 96.2277832 301.8946582 96.2277832 287.2746582 C100.16329102 287.32106445 104.09879883 287.3674707 108.15356445 287.4152832 C111.95620432 287.44645906 115.75883007 287.47075821 119.56152344 287.49438477 C122.20872345 287.51452668 124.85587884 287.54184176 127.50292969 287.57641602 C131.30325315 287.62481871 135.10298951 287.6476015 138.90356445 287.6652832 C140.09113846 287.68592834 141.27871246 287.70657349 142.50227356 287.72784424 C143.60318832 287.72814636 144.70410309 287.72844849 145.83837891 287.72875977 C146.80878616 287.73764221 147.77919342 287.74652466 148.77900696 287.75567627 C151.35809999 287.49186452 151.35809999 287.49186452 153.0052948 285.43011475 C158.21440867 276.24555435 157.51059945 263.52696951 157.5402832 253.3371582 C157.54568115 252.18852295 157.5510791 251.0398877 157.55664062 249.85644531 C157.59710269 238.65002378 157.59710269 238.65002378 153.41577148 228.55541992 C148.49647824 225.03604196 143.82518265 225.65463564 137.92700195 225.78637695 C136.73549026 225.79345169 135.54397858 225.80052643 134.31636047 225.80781555 C130.51535948 225.83577634 126.71583806 225.89852346 122.9152832 225.9621582 C120.33652845 225.98723864 117.75775058 226.01005225 115.17895508 226.03051758 C108.86087093 226.08135508 102.54598061 226.17921715 96.2277832 226.2746582 C96.2277832 212.0846582 96.2277832 197.8946582 96.2277832 183.2746582 C104.72979492 183.32686523 104.72979492 183.32686523 113.40356445 183.38012695 C116.99016327 183.39545202 120.57672183 183.4098936 124.16333008 183.42114258 C129.85864627 183.43908976 135.55381805 183.46034185 141.24902344 183.50097656 C145.83962272 183.53352578 150.43006718 183.55150185 155.02077293 183.55928993 C156.7739118 183.56484144 158.52704201 183.57568195 160.28011513 183.59184837 C162.73201566 183.61356395 165.18327299 183.61662764 167.63525391 183.61523438 C168.36317642 183.6260202 169.09109894 183.63680603 169.84107971 183.6479187 C173.74215155 183.63077431 173.74215155 183.63077431 177.14381409 181.9054718 C182.90037272 173.2448246 181.69082966 159.85236826 181.61889648 149.91821289 C181.60280778 147.27868993 181.61882701 144.64069757 181.63793945 142.0012207 C182.1284906 126.6493363 182.1284906 126.6493363 177.05750084 112.64720917 C174.38606361 110.64324765 172.3324515 110.89115527 169.01626587 110.88024902 C167.7151738 110.86889923 166.41408173 110.85754944 165.07356262 110.84585571 C163.62838684 110.84849916 162.18321162 110.85147041 160.73803711 110.85473633 C159.21862665 110.84739828 157.69922178 110.83881282 156.17982483 110.82907104 C152.049584 110.8068166 147.91954245 110.80392636 143.7892499 110.80581856 C140.34240229 110.8059381 136.89559716 110.79738068 133.44876134 110.78904104 C125.31680503 110.76979226 117.18495137 110.76692826 109.05297852 110.77368164 C100.66236116 110.78032162 92.2721835 110.75746341 83.88165534 110.72036791 C76.67985199 110.68968255 69.47819015 110.67830966 62.27632272 110.68220472 C57.97411579 110.68427371 53.67225083 110.67877057 49.37010574 110.65431213 C45.32338827 110.63206692 41.2773858 110.63390362 37.23066521 110.65423965 C35.7459794 110.65765389 34.26124568 110.65254265 32.77662468 110.63825607 C30.74891431 110.62009088 28.72098496 110.63580502 26.69326782 110.65319824 C25.55874994 110.65248573 24.42423206 110.65177322 23.25533485 110.65103912 C19.00145032 111.52725987 17.66873313 112.66839019 15.2277832 116.2746582 Z " fill="#000000" transform="translate(156.772216796875,-0.274658203125)"/>
</svg>
