<?xml version="1.0" encoding="UTF-8"?>
<svg version="1.1" xmlns="http://www.w3.org/2000/svg" width="333" height="155">
<path d="M0 0 C109.89 0 219.78 0 333 0 C333 51.15 333 102.3 333 155 C223.11 155 113.22 155 0 155 C0 103.85 0 52.7 0 0 Z " fill="#030102" transform="translate(0,0)"/>
<path d="M0 0 C2.23077928 3.34616892 2.24524037 4.39593959 2.22705078 8.29760742 C2.22689972 9.37850143 2.22674866 10.45939545 2.22659302 11.57304382 C2.21627045 12.73874405 2.20594788 13.90444427 2.1953125 15.10546875 C2.1924826 16.29981033 2.18965271 17.49415192 2.18673706 18.72468567 C2.17552677 22.54572497 2.15042037 26.36653134 2.125 30.1875 C2.11497131 32.77538724 2.10584527 35.36327816 2.09765625 37.95117188 C2.07558465 44.30086096 2.0420986 50.65041384 2 57 C2.89227295 57.2774707 3.7845459 57.55494141 4.70385742 57.84082031 C7.62560575 58.86833391 10.06491296 60.00777272 12.73828125 61.546875 C13.62926514 62.05573242 14.52024902 62.56458984 15.43823242 63.08886719 C16.86099487 63.91112793 16.86099487 63.91112793 18.3125 64.75 C20.35653875 65.91707323 22.40081871 67.08372409 24.4453125 68.25 C25.51040039 68.85972656 26.57548828 69.46945313 27.67285156 70.09765625 C33.3336282 73.33428463 39.00759648 76.54708125 44.6875 79.75 C45.75589111 80.35811523 46.82428223 80.96623047 47.92504883 81.59277344 C48.9230249 82.15512695 49.92100098 82.71748047 50.94921875 83.296875 C51.82924561 83.79541992 52.70927246 84.29396484 53.6159668 84.80761719 C55.80601663 85.90297852 57.57854362 86.67087621 60 87 C62.82520797 85.70949293 62.82520797 85.70949293 65.9375 83.625 C67.26005409 82.79551696 68.58445273 81.96897143 69.91015625 81.14453125 C70.68504395 80.66064941 71.45993164 80.17676758 72.25830078 79.67822266 C75.51990249 77.68176227 78.81654192 75.74832814 82.12109375 73.82421875 C82.75411911 73.45542603 83.38714447 73.0866333 84.03935242 72.70666504 C86.61892059 71.20496633 89.19924837 69.70458851 91.78097534 68.206604 C99.00020989 64.01401718 106.13323369 59.75890819 113 55 C111.35 54.34 109.7 53.68 108 53 C108 52.34 108 51.68 108 51 C107.01 50.67 106.02 50.34 105 50 C105.99 50 106.98 50 108 50 C108.33 49.01 108.66 48.02 109 47 C109.99 46.67 110.98 46.34 112 46 C112 45.34 112 44.68 112 44 C112.66 44 113.32 44 114 44 C115 45.33333333 116 46.66666667 117 48 C117.66 48 118.32 48 119 48 C119 47.34 119 46.68 119 46 C120.32 45.67 121.64 45.34 123 45 C123 45.99 123 46.98 123 48 C124.32 48 125.64 48 127 48 C127.3403125 47.13375 127.3403125 47.13375 127.6875 46.25 C129.34848222 43.40260191 131.31524561 41.87932807 134 40 C134.66 40 135.32 40 136 40 C136 39.34 136 38.68 136 38 C142.93 38 149.86 38 157 38 C157 36.35 157 34.7 157 33 C157.42796875 33.64453125 157.8559375 34.2890625 158.296875 34.953125 C162.56025033 38.18146123 167.03944779 37.67726387 172.25 37.75 C173.28125 37.77964844 174.3125 37.80929688 175.375 37.83984375 C177.91674495 37.91044778 180.45757783 37.96319009 183 38 C184.01587978 34.95236066 184.19804406 32.65281033 184.31640625 29.45703125 C184.35830078 28.38388672 184.40019531 27.31074219 184.44335938 26.20507812 C184.48267578 25.08552734 184.52199219 23.96597656 184.5625 22.8125 C184.62727539 21.11577148 184.62727539 21.11577148 184.69335938 19.38476562 C184.79949099 16.58996646 184.90154385 13.79507838 185 11 C185.99 11 186.98 11 188 11 C188 17.27 188 23.54 188 30 C189.98 30.99 189.98 30.99 192 32 C192.721875 32.86625 193.44375 33.7325 194.1875 34.625 C197.56920328 37.48066055 199.38675396 37.84293971 203.71484375 37.640625 C207.32551387 36.62840295 209.22930014 34.3438126 211.58984375 31.53125 C212.05519531 31.0259375 212.52054688 30.520625 213 30 C213.66 30 214.32 30 215 30 C215 28.35 215 26.7 215 25 C215.66 25 216.32 25 217 25 C217.04898438 25.69867188 217.09796875 26.39734375 217.1484375 27.1171875 C217.26058594 28.48230469 217.26058594 28.48230469 217.375 29.875 C217.47941406 31.23238281 217.47941406 31.23238281 217.5859375 32.6171875 C217.79568132 35.17941903 217.79568132 35.17941903 220 37 C222.3245339 37.37051993 222.3245339 37.37051993 225.0078125 37.4140625 C225.99394531 37.45273438 226.98007813 37.49140625 227.99609375 37.53125 C229.02863281 37.5621875 230.06117188 37.593125 231.125 37.625 C232.16527344 37.66367188 233.20554687 37.70234375 234.27734375 37.7421875 C236.85138311 37.83664766 239.42541155 37.92221214 242 38 C242 37.34 242 36.68 242 36 C242.66 36 243.32 36 244 36 C244 27.75 244 19.5 244 11 C244.99 11 245.98 11 247 11 C247.33 19.58 247.66 28.16 248 37 C249.98 37.33 251.96 37.66 254 38 C254 32.06 254 26.12 254 20 C258.62750506 24.62750506 261.99200788 29.16882742 265.62109375 34.55078125 C267.81794946 37.33383095 267.81794946 37.33383095 271.28515625 37.35546875 C272.62900391 37.17951172 272.62900391 37.17951172 274 37 C274.03738281 35.72382812 274.07476562 34.44765625 274.11328125 33.1328125 C274.17892791 31.46351162 274.2453757 29.79424211 274.3125 28.125 C274.33505859 27.28324219 274.35761719 26.44148438 274.38085938 25.57421875 C274.41630859 24.76855469 274.45175781 23.96289062 274.48828125 23.1328125 C274.51446533 22.38918457 274.54064941 21.64555664 274.56762695 20.87939453 C275 19 275 19 278 17 C280.6875 17.375 280.6875 17.375 283 18 C282.34 18.66 281.68 19.32 281 20 C280.34 20 279.68 20 279 20 C278.67 20.66 278.34 21.32 278 22 C278.66 22 279.32 22 280 22 C280 22.66 280 23.32 280 24 C280.78375 23.67 281.5675 23.34 282.375 23 C285 22 285 22 287 22 C290.0497509 21.31685277 290.0497509 21.31685277 293 20 C293.33 19.34 293.66 18.68 294 18 C295 16 295 16 297.875 14.8125 C300.24678572 14.19583571 302.62252881 13.5943678 305 13 C305 43.36 305 73.72 305 105 C195.11 105 85.22 105 -28 105 C-28 77.94 -28 50.88 -28 23 C-18 18 -18 18 -16 18 C-16 17.34 -16 16.68 -16 16 C-14.02 15.34 -12.04 14.68 -10 14 C-10 13.34 -10 12.68 -10 12 C-7.69 11.34 -5.38 10.68 -3 10 C-3 9.34 -3 8.68 -3 8 C-3.66 8 -4.32 8 -5 8 C-5 6.35 -5 4.7 -5 3 C-3.68 3 -2.36 3 -1 3 C-0.67 2.01 -0.34 1.02 0 0 Z " fill="#020001" transform="translate(28,50)"/>
<path d="M0 0 C2.5625 1.6875 2.5625 1.6875 4 4 C4.25 6.75 4.25 6.75 4 9 C1.59454362 10.20272819 0.05003047 10.10071472 -2.625 10.0625 C-3.85089844 10.04896484 -3.85089844 10.04896484 -5.1015625 10.03515625 C-6.04128906 10.01775391 -6.04128906 10.01775391 -7 10 C-7.0272415 11.41655793 -7.04650467 12.83327045 -7.0625 14.25 C-7.07410156 15.03890625 -7.08570312 15.8278125 -7.09765625 16.640625 C-7.00385306 18.90691002 -6.63241063 20.8288895 -6 23 C-4.9275 22.814375 -3.855 22.62875 -2.75 22.4375 C1 22 1 22 3.1875 22.6875 C3.785625 22.790625 4.38375 22.89375 5 23 C5.74443359 22.02740234 5.74443359 22.02740234 6.50390625 21.03515625 C10.32329439 17.92106983 13.98925278 18.56856174 18.75 18.75 C23.32875 18.87375 23.32875 18.87375 28 19 C28 30.88 28 42.76 28 55 C22.94453789 51.20840342 18.3539858 47.63763807 13.76171875 43.41796875 C11.94699605 41.78872745 11.94699605 41.78872745 9 41 C7.515 41.495 7.515 41.495 6 42 C-3.29647839 42.74616471 -13.01898881 42.55251075 -20.75 36.66796875 C-23.30899446 33.25331052 -23.06482715 29.21901353 -22.50878906 25.11523438 C-19.63198215 13.15522714 -14.09865595 -2.06135583 0 0 Z " fill="#F5F5F5" transform="translate(84,45)"/>
<path d="M0 0 C1.8508277 1.02304367 3.71297381 2.02588146 5.5859375 3.0078125 C18.84116673 10.14044227 31.97214623 17.46004738 45 25 C45 25.66 45 26.32 45 27 C42.19774268 27.79910049 40.53113213 28.18795588 37.74609375 27.20239258 C36.98425781 26.77079834 36.22242188 26.3392041 35.4375 25.89453125 C34.56818848 25.41113281 33.69887695 24.92773438 32.80322266 24.4296875 C31.87815918 23.89601563 30.9530957 23.36234375 30 22.8125 C29.03755371 22.27238281 28.07510742 21.73226562 27.08349609 21.17578125 C24.04652082 19.46609131 21.02226453 17.73554342 18 16 C16.05483068 14.88907217 14.10952157 13.77838909 12.1640625 12.66796875 C9.45709495 11.12210094 6.75203113 9.5735907 4.0546875 8.01098633 C2.45476851 7.08667007 0.84579996 6.17779309 -0.77294922 5.28686523 C-3 4 -3 4 -4.94970703 2.54321289 C-7.06984978 1.09999636 -8.45031123 0.35240524 -11 0 C-15.4567737 1.46307009 -19.19491943 3.91326873 -23.125 6.4375 C-24.26435088 7.13742088 -25.40565689 7.83416842 -26.54882812 8.52783203 C-28.89037202 9.95399809 -31.22079591 11.396123 -33.54394531 12.85205078 C-38.79808137 16.13473351 -44.15565205 19.24233762 -49.5 22.375 C-52.05650082 23.89177455 -54.61174682 25.41062284 -57.16601562 26.93115234 C-58.42067291 27.66236768 -59.70112641 28.3505632 -61 29 C-61.33 48.8 -61.66 68.6 -62 89 C-60.35 89.66 -58.7 90.32 -57 91 C-54.90720558 92.08678932 -52.83035577 93.20454573 -50.765625 94.34375 C-49.87873238 94.83235252 -49.87873238 94.83235252 -48.97392273 95.33082581 C-47.71414631 96.02583612 -46.45518823 96.7223315 -45.19699097 97.42019653 C-43.23802396 98.50664192 -41.27647505 99.58831762 -39.31469727 100.66967773 C-31.40558332 105.04144889 -23.55105879 109.48899727 -15.92480469 114.34375 C-12.76789889 116.43145133 -12.76789889 116.43145133 -9.13842773 116.77807617 C-6.46555609 115.80554027 -4.15457078 114.50988204 -1.6953125 113.078125 C-0.64690186 112.47025146 0.40150879 111.86237793 1.48168945 111.23608398 C2.60148193 110.58067627 3.72127441 109.92526855 4.875 109.25 C6.03637765 108.57764499 7.19808385 107.90585719 8.36010742 107.23461914 C14.09869909 103.91127616 19.79332728 100.53163971 25.43359375 97.04296875 C26.42697754 96.43485352 27.42036133 95.82673828 28.44384766 95.20019531 C30.32435964 94.04468071 32.19560175 92.87391166 34.05615234 91.68652344 C34.90000488 91.16993164 35.74385742 90.65333984 36.61328125 90.12109375 C37.34329346 89.6614624 38.07330566 89.20183105 38.82543945 88.72827148 C41 88 41 88 43.77416992 88.86743164 C44.87595581 89.42805298 44.87595581 89.42805298 46 90 C42.68904878 92.7552671 39.38033643 95.06054802 35.6328125 97.1796875 C34.07264404 98.06914062 34.07264404 98.06914062 32.48095703 98.9765625 C31.37349121 99.60304688 30.26602539 100.22953125 29.125 100.875 C22.1201293 104.85914991 15.15074844 108.86602193 8.3125 113.1328125 C7.2694873 113.78266113 6.22647461 114.43250977 5.15185547 115.10205078 C3.16513045 116.34780012 1.18472008 117.60368902 -0.78857422 118.87060547 C-1.6807666 119.42893066 -2.57295898 119.98725586 -3.4921875 120.5625 C-4.65790283 121.30693359 -4.65790283 121.30693359 -5.84716797 122.06640625 C-8 123 -8 123 -9.91137695 122.84863281 C-12.70852458 121.71211789 -15.28601515 120.32674633 -17.92578125 118.859375 C-18.50214325 118.54051834 -19.07850525 118.22166168 -19.67233276 117.8931427 C-21.5549547 116.84997657 -23.43375101 115.80012277 -25.3125 114.75 C-26.61155837 114.02824641 -27.91079501 113.30681358 -29.21020508 112.58569336 C-40.21553086 106.47009081 -51.18054177 100.28236478 -62.12182617 94.05297852 C-63.39767719 93.33768598 -64.69173727 92.65413137 -66 92 C-66.20886274 83.62896677 -66.36860296 75.2590277 -66.46630955 66.8860302 C-66.51321428 62.99762607 -66.57678222 59.11100851 -66.67895508 55.22363281 C-66.77701014 51.46927595 -66.83060817 47.71663265 -66.85389519 43.9610939 C-66.87048027 42.53115987 -66.9028726 41.10131613 -66.95157051 39.67211533 C-67.31671302 28.50810019 -67.31671302 28.50810019 -64.1426239 24.87265015 C-61.82649451 23.3002031 -59.55846712 22.12738988 -57 21 C-55.97994873 20.38366699 -54.95989746 19.76733398 -53.90893555 19.13232422 C-52.994104 18.6117041 -52.07927246 18.09108398 -51.13671875 17.5546875 C-50.09459229 16.95744873 -49.05246582 16.36020996 -47.97875977 15.74487305 C-45.73479731 14.47000409 -43.48911701 13.19815519 -41.24194336 11.92895508 C-35.78554261 8.83426504 -30.42674153 5.68193771 -25.2421875 2.14453125 C-24.36216064 1.56010254 -23.48213379 0.97567383 -22.57543945 0.37353516 C-20.94413513 -0.72097448 -19.33617091 -1.85141664 -17.75854492 -3.02197266 C-10.55609811 -7.77193374 -6.61066621 -4.38264582 0 0 Z " fill="#F2F2F2" transform="translate(96,15)"/>
<path d="M0 0 C1.15878418 0.73431604 2.30835808 1.48337201 3.44816589 2.24681091 C5.95266421 3.9076713 8.58000748 5.341256 11.19883728 6.81303406 C13.1502758 7.96684005 15.09948481 9.12442478 17.04649353 10.28569031 C25.95256605 15.54340785 34.918597 20.60571005 44.10899353 25.34819031 C43.44899353 26.00819031 42.78899353 26.66819031 42.10899353 27.34819031 C38.4785559 26.98946489 35.71353568 25.79805725 32.54649353 24.04740906 C31.67677917 23.57021423 30.80706482 23.09301941 29.91099548 22.60136414 C28.98633484 22.08469177 28.06167419 21.56801941 27.10899353 21.03569031 C26.15017273 20.50677185 25.19135193 19.97785339 24.20347595 19.4329071 C16.32864881 15.07258257 8.50910093 10.61387878 0.72422791 6.09501648 C-0.10141663 5.61782166 -0.92706116 5.14062683 -1.77772522 4.64897156 C-2.50177551 4.22785095 -3.22582581 3.80673035 -3.97181702 3.37284851 C-6.01194583 2.21462679 -6.01194583 2.21462679 -8.89100647 1.34819031 C-11.42874414 2.42366614 -11.42874414 2.42366614 -14.16835022 4.10990906 C-15.24149475 4.7357489 -16.31463928 5.36158875 -17.42030334 6.00639343 C-18.54501038 6.6760614 -19.66971741 7.34572937 -20.82850647 8.03569031 C-21.88747131 8.65508484 -22.94643616 9.27447937 -24.03749084 9.91264343 C-25.72254413 10.90145928 -27.40716789 11.89216339 -29.06132507 12.93183899 C-32.67239151 15.17703715 -36.24168691 16.93935882 -40.18739319 18.53520203 C-45.80776729 21.00033724 -51.02437267 23.44084464 -54.89100647 28.34819031 C-58.11109367 37.47462175 -56.76666532 47.6235905 -56.14100647 57.09819031 C-56.04057784 59.74108306 -55.9493413 62.38434205 -55.86756897 65.02787781 C-55.64816685 71.47602858 -55.31463369 77.91040138 -54.89100647 84.34819031 C-54.17259583 84.74497986 -53.45418518 85.14176941 -52.71400452 85.55058289 C-49.9533561 87.07654621 -47.1936194 88.60414303 -44.43449402 90.13285828 C-43.19999628 90.8165139 -41.96519519 91.49962203 -40.73008728 92.18217468 C-34.44411618 95.65697239 -28.17548028 99.14568714 -22.00819397 102.82865906 C-21.14492493 103.34259216 -20.28165588 103.85652527 -19.39222717 104.3860321 C-17.79836468 105.34164753 -16.21062215 106.30756555 -14.63002014 107.28495789 C-13.92337219 107.70801208 -13.21672424 108.13106628 -12.48866272 108.56694031 C-11.88546204 108.93754578 -11.28226135 109.30815125 -10.66078186 109.68998718 C-8.30084996 110.5676774 -7.23719656 110.21889553 -4.89100647 109.34819031 C-3.31744916 108.56678511 -1.76960001 107.73263803 -0.24256897 106.86381531 C0.67049011 106.34649841 1.58354919 105.82918152 2.52427673 105.29618835 C3.50098328 104.735849 4.47768982 104.17550964 5.48399353 103.59819031 C6.49099304 103.02560486 7.49799255 102.45301941 8.5355072 101.86308289 C16.84569369 97.11966643 25.08496006 92.25750716 33.276474 87.3120575 C34.57995789 86.53136902 34.57995789 86.53136902 35.90977478 85.73490906 C36.67459167 85.27302185 37.43940857 84.81113464 38.22740173 84.33525085 C40.10899353 83.34819031 40.10899353 83.34819031 42.10899353 83.34819031 C42.43899353 84.33819031 42.76899353 85.32819031 43.10899353 86.34819031 C42.51288269 86.69373962 41.91677185 87.03928894 41.30259705 87.39530945 C38.42445739 89.0652058 35.54801843 90.738014 32.67149353 92.41069031 C31.60503601 93.02887634 30.53857849 93.64706238 29.43980408 94.28398132 C23.62157127 97.66914267 17.84545933 101.10548132 12.12461853 104.65287781 C10.44130432 105.68916321 10.44130432 105.68916321 8.72398376 106.74638367 C6.5493071 108.08925896 4.38189346 109.44397938 2.22251892 110.81132507 C1.23243835 111.42032654 0.24235779 112.029328 -0.77772522 112.65678406 C-1.64615051 113.2013324 -2.51457581 113.74588074 -3.40931702 114.30693054 C-6.47314196 115.59244096 -7.76821529 115.39781643 -10.89100647 114.34819031 C-13.26502991 113.17167664 -13.26502991 113.17167664 -15.75038147 111.68022156 C-16.70428772 111.11496765 -17.65819397 110.54971375 -18.64100647 109.96733093 C-19.63100647 109.37113953 -20.62100647 108.77494812 -21.64100647 108.16069031 C-34.24177128 100.62336842 -47.06460523 93.49265165 -59.89100647 86.34819031 C-60.40430911 78.75356506 -60.79327967 71.16075274 -61.03087425 63.55266285 C-61.14506336 60.01671182 -61.29910709 56.49271993 -61.55067444 52.96366882 C-63.12139016 30.32782235 -63.12139016 30.32782235 -57.90235901 23.89830017 C-52.71908434 19.64568733 -46.84966798 17.06536649 -40.67695618 14.55751038 C-36.74466923 12.85059029 -33.38632066 10.56742606 -29.89100647 8.11381531 C-28.70834995 7.34402406 -27.5222117 6.57955164 -26.33241272 5.82084656 C-24.57548651 4.69754953 -22.83936315 3.56217307 -21.12879944 2.3691864 C-13.55343529 -2.87786423 -8.5090175 -5.01495692 0 0 Z " fill="#A2A1A2" transform="translate(93.89100646972656,17.651809692382813)"/>
<path d="M0 0 C1.46566406 -0.00386719 1.46566406 -0.00386719 2.9609375 -0.0078125 C3.98445313 -0.00007813 5.00796875 0.00765625 6.0625 0.015625 C7.08601563 0.00789063 8.10953125 0.00015625 9.1640625 -0.0078125 C10.14117187 -0.00523438 11.11828125 -0.00265625 12.125 0 C13.02347656 0.00225586 13.92195313 0.00451172 14.84765625 0.00683594 C17.0625 0.265625 17.0625 0.265625 19.0625 2.265625 C19.28955078 4.78759766 19.28955078 4.78759766 19.2578125 7.9296875 C19.25136719 9.05117187 19.24492187 10.17265625 19.23828125 11.328125 C19.22152344 12.50375 19.20476562 13.679375 19.1875 14.890625 C19.17847656 16.07398437 19.16945313 17.25734375 19.16015625 18.4765625 C19.13652812 21.40645023 19.10358514 24.3359384 19.0625 27.265625 C18.4025 27.265625 17.7425 27.265625 17.0625 27.265625 C17.0625 27.925625 17.0625 28.585625 17.0625 29.265625 C13.43756666 29.32350284 9.81275143 29.3591792 6.1875 29.390625 C5.15496094 29.40738281 4.12242187 29.42414063 3.05859375 29.44140625 C2.07246094 29.44785156 1.08632812 29.45429687 0.0703125 29.4609375 C-1.29649658 29.47664795 -1.29649658 29.47664795 -2.69091797 29.49267578 C-4.9375 29.265625 -4.9375 29.265625 -6.9375 27.265625 C-7.19628906 24.77539062 -7.19628906 24.77539062 -7.203125 21.671875 C-7.20570313 20.55941406 -7.20828125 19.44695312 -7.2109375 18.30078125 C-7.19933594 16.55087891 -7.19933594 16.55087891 -7.1875 14.765625 C-7.19523438 13.59902344 -7.20296875 12.43242188 -7.2109375 11.23046875 C-7.20835937 10.11800781 -7.20578125 9.00554687 -7.203125 7.859375 C-7.20086914 6.83521484 -7.19861328 5.81105469 -7.19628906 4.75585938 C-6.70049587 -0.01498082 -4.1636521 0.01045393 0 0 Z " fill="#F5F5F5" transform="translate(252.9375,58.734375)"/>
<path d="M0 0 C1.46566406 -0.00386719 1.46566406 -0.00386719 2.9609375 -0.0078125 C3.98445312 -0.00007813 5.00796875 0.00765625 6.0625 0.015625 C7.08601562 0.00789063 8.10953125 0.00015625 9.1640625 -0.0078125 C10.14117187 -0.00523438 11.11828125 -0.00265625 12.125 0 C13.02347656 0.00225586 13.92195313 0.00451172 14.84765625 0.00683594 C17.0625 0.265625 17.0625 0.265625 19.0625 2.265625 C19.32128906 4.64819336 19.32128906 4.64819336 19.328125 7.60546875 C19.33199219 9.1997168 19.33199219 9.1997168 19.3359375 10.82617188 C19.32820313 11.94056641 19.32046875 13.05496094 19.3125 14.203125 C19.32023437 15.31365234 19.32796875 16.42417969 19.3359375 17.56835938 C19.33335937 18.63248047 19.33078125 19.69660156 19.328125 20.79296875 C19.32586914 21.76999756 19.32361328 22.74702637 19.32128906 23.75366211 C19.0625 26.265625 19.0625 26.265625 17.0625 29.265625 C14.84765625 29.63793945 14.84765625 29.63793945 12.125 29.62890625 C10.65933594 29.62793945 10.65933594 29.62793945 9.1640625 29.62695312 C8.14054688 29.61083984 7.11703125 29.59472656 6.0625 29.578125 C5.03898438 29.58134766 4.01546875 29.58457031 2.9609375 29.58789062 C-4.67060839 29.53251661 -4.67060839 29.53251661 -6.9375 27.265625 C-7.19628906 24.77539062 -7.19628906 24.77539062 -7.203125 21.671875 C-7.20570313 20.55941406 -7.20828125 19.44695312 -7.2109375 18.30078125 C-7.19933594 16.55087891 -7.19933594 16.55087891 -7.1875 14.765625 C-7.19523438 13.59902344 -7.20296875 12.43242188 -7.2109375 11.23046875 C-7.20835937 10.11800781 -7.20578125 9.00554687 -7.203125 7.859375 C-7.20086914 6.83521484 -7.19861328 5.81105469 -7.19628906 4.75585938 C-6.70049587 -0.01498082 -4.1636521 0.01045393 0 0 Z " fill="#F5F4F4" transform="translate(193.9375,58.734375)"/>
<path d="M0 0 C6 0 6 0 8.4140625 2.1953125 C9.14367187 3.16210938 9.87328125 4.12890625 10.625 5.125 C11.72714844 6.55199219 11.72714844 6.55199219 12.8515625 8.0078125 C14.96936366 10.95733193 16.98583885 13.97875828 19 17 C19.33 11.39 19.66 5.78 20 0 C21.98 0 23.96 0 26 0 C26 9.57 26 19.14 26 29 C20 29 20 29 18.12548828 27.43945312 C17.61228027 26.72724609 17.09907227 26.01503906 16.5703125 25.28125 C16.003125 24.51425781 15.4359375 23.74726562 14.8515625 22.95703125 C14.28179687 22.14621094 13.71203125 21.33539063 13.125 20.5 C12.53203125 19.68917969 11.9390625 18.87835938 11.328125 18.04296875 C9.86802392 16.04121727 8.43167118 14.02218243 7 12 C6.67 17.61 6.34 23.22 6 29 C4.02 29 2.04 29 0 29 C0 19.43 0 9.86 0 0 Z " fill="#F7F7F7" transform="translate(276,59)"/>
<path d="M0 0 C8.25 0 16.5 0 25 0 C25 1.98 25 3.96 25 6 C18.73 6 12.46 6 6 6 C6 7.98 6 9.96 6 12 C11.61 12 17.22 12 23 12 C23 13.65 23 15.3 23 17 C17.39 17 11.78 17 6 17 C6 18.98 6 20.96 6 23 C12.27 23 18.54 23 25 23 C25 24.98 25 26.96 25 29 C16.75 29 8.5 29 0 29 C0 19.43 0 9.86 0 0 Z " fill="#F2F1F2" transform="translate(131,59)"/>
<path d="M0 0 C0.8125 1.6875 0.8125 1.6875 1 4 C-1 6.3125 -1 6.3125 -2.421875 7.5703125 C-4.06249036 9.0010977 -4.06249036 9.0010977 -5.578125 10.8046875 C-6.12984375 11.42601562 -6.6815625 12.04734375 -7.25 12.6875 C-7.75015625 13.26886719 -8.2503125 13.85023438 -8.765625 14.44921875 C-11.11595589 16.08047987 -12.44791001 16.38074631 -15.21484375 16.890625 C-20.35983029 17.88820816 -24.02281445 20.14353207 -28.3125 23.0625 C-29.68039947 23.97485952 -31.05139685 24.88259523 -32.42578125 25.78515625 C-33.01786377 26.18613525 -33.60994629 26.58711426 -34.2199707 27.00024414 C-36.12947515 28.07271989 -37.86196146 28.56487082 -40 29 C-40 28.34 -40 27.68 -40 27 C-39.34 26.67 -38.68 26.34 -38 26 C-38.33 25.01 -38.66 24.02 -39 23 C-39.99 23 -40.98 23 -42 23 C-41.67 24.32 -41.34 25.64 -41 27 C-41.66 27 -42.32 27 -43 27 C-44.625 25 -44.625 25 -46 23 C-39.25 19 -39.25 19 -37 19 C-36.67 17.68 -36.34 16.36 -36 15 C-35.0925 15.12375 -34.185 15.2475 -33.25 15.375 C-32.1775 15.25125 -31.105 15.1275 -30 15 C-29.38125 14.030625 -28.7625 13.06125 -28.125 12.0625 C-27.42375 11.051875 -26.7225 10.04125 -26 9 C-22.25 8.4375 -22.25 8.4375 -20.15234375 8.33203125 C-16.20460713 7.72303377 -13.20730393 5.26031979 -10 3 C-6.40113978 0.57286171 -4.36899951 -0.37448567 0 0 Z " fill="#080607" transform="translate(228,120)"/>
<path d="M0 0 C1.65 0 3.3 0 5 0 C5 5.94 5 11.88 5 18 C6.32 18.66 7.64 19.32 9 20 C9.66 20.66 10.32 21.32 11 22 C14.35760202 21.67507077 15.73637648 20.3665155 18 18 C18.66 18 19.32 18 20 18 C20 12.06 20 6.12 20 0 C21.98 0 23.96 0 26 0 C27.31408048 18.80398631 27.31408048 18.80398631 24.25390625 23.91796875 C22.23456471 25.60615268 20.3647429 26.86012393 18 28 C17.67 28.33 17.34 28.66 17 29 C12.91767858 29.86648835 9.45423148 29.64100993 5.625 27.953125 C2.74574389 25.79368291 1.52405263 24.30414609 0 21 C-0.96622585 14.05290563 -0.49158471 6.97294009 0 0 Z " fill="#F3F2F3" transform="translate(217,59)"/>
<path d="M0 0 C2.475 2.475 2.475 2.475 5 5 C4.34 5 3.68 5 3 5 C2.67 5.99 2.34 6.98 2 8 C0.68 7.34 -0.64 6.68 -2 6 C-2.66 6.99 -3.32 7.98 -4 9 C-6.03547278 10.15343458 -7.95460064 10.98573163 -10.1875 11.6875 C-12.41934701 12.97827736 -12.41934701 12.97827736 -12.5625 16.5 C-12.706875 17.655 -12.85125 18.81 -13 20 C-16 22 -16 22 -19 22 C-19 22.66 -19 23.32 -19 24 C-19.51949219 24.25394531 -20.03898437 24.50789063 -20.57421875 24.76953125 C-21.27160156 25.11371094 -21.96898437 25.45789063 -22.6875 25.8125 C-23.4196875 26.1734375 -24.151875 26.534375 -24.90625 26.90625 C-27.15245283 28.0300155 -27.15245283 28.0300155 -29.6875 29.8125 C-32 31 -32 31 -34.6875 30.875 C-37 30 -37 30 -39 27 C-39.0625 25 -39.0625 25 -38 23 C-36.29586901 22.24624975 -34.5850402 21.50190252 -32.8359375 20.859375 C-30.66899328 19.97625099 -30.66899328 19.97625099 -28.375 17.3125 C-25.48492934 14.49848383 -24.8068083 15 -21 15 C-20.360625 14.195625 -19.72125 13.39125 -19.0625 12.5625 C-16.41684927 9.2754794 -15.06566675 9.66698514 -11 9 C-7.98516797 7.62790721 -7.98516797 7.62790721 -5.125 5.9375 C-4.15820312 5.38964844 -3.19140625 4.84179688 -2.1953125 4.27734375 C-1.47085938 3.85582031 -0.74640625 3.43429688 0 3 C0 2.01 0 1.02 0 0 Z " fill="#070506" transform="translate(219,82)"/>
<path d="M0 0 C1.98 0 3.96 0 6 0 C6 7.59 6 15.18 6 23 C11.94 23 17.88 23 24 23 C24 24.98 24 26.96 24 29 C16.08 29 8.16 29 0 29 C0 19.43 0 9.86 0 0 Z " fill="#F2F1F2" transform="translate(160,59)"/>
<path d="M0 0 C0.33 0 0.66 0 1 0 C1 16.17 1 32.34 1 49 C2.65 49.66 4.3 50.32 6 51 C8.10466842 52.09835063 10.19321391 53.22785908 12.26953125 54.37890625 C12.86325531 54.70755676 13.45697937 55.03620728 14.06869507 55.37481689 C15.33260458 56.07485685 16.59585422 56.77608933 17.85848999 57.47842407 C19.82496469 58.56941535 21.79624321 59.65124892 23.76879883 60.73120117 C29.30569374 63.7716272 34.80756879 66.80611725 40.1171875 70.234375 C40.82512451 70.67966553 41.53306152 71.12495605 42.26245117 71.58374023 C43.49826299 72.37255962 44.71474184 73.19302324 45.90356445 74.05102539 C47.73564472 75.31655678 47.73564472 75.31655678 51 76 C54.66463335 74.90952196 57.74722373 72.97747477 61 71 C62.56850708 70.09495728 62.56850708 70.09495728 64.16870117 69.17163086 C67.63093264 67.16487897 71.06724616 65.11900824 74.5 63.0625 C75.67038287 62.36491543 76.84095507 61.6676484 78.01171875 60.97070312 C84.52261053 57.09297236 84.52261053 57.09297236 91 53.15966797 C92.34578125 52.33619873 92.34578125 52.33619873 93.71875 51.49609375 C94.50185547 51.01197021 95.28496094 50.52784668 96.09179688 50.02905273 C98 49 98 49 100 49 C100.495 48.01 100.495 48.01 101 47 C101.33 47.99 101.66 48.98 102 50 C101.40388916 50.34554932 100.80777832 50.69109863 100.19360352 51.04711914 C97.31546386 52.7170155 94.4390249 54.38982369 91.5625 56.0625 C90.49604248 56.68068604 89.42958496 57.29887207 88.33081055 57.93579102 C82.51257774 61.32095237 76.7364658 64.75729102 71.015625 68.3046875 C69.33231079 69.3409729 69.33231079 69.3409729 67.61499023 70.39819336 C65.44031357 71.74106866 63.27289993 73.09578908 61.11352539 74.46313477 C60.12344482 75.07213623 59.13336426 75.6811377 58.11328125 76.30859375 C57.24485596 76.85314209 56.37643066 77.39769043 55.48168945 77.95874023 C52.41603626 79.24501774 51.12476073 79.05119244 48 78 C45.59423828 76.80761719 45.59423828 76.80761719 43.0703125 75.296875 C42.120354 74.73444092 41.17039551 74.17200684 40.19165039 73.5925293 C38.67365845 72.68047729 38.67365845 72.68047729 37.125 71.75 C34.98134268 70.47899363 32.83678617 69.20950281 30.69140625 67.94140625 C29.04229248 66.96518311 29.04229248 66.96518311 27.35986328 65.96923828 C20.97270569 62.22568261 14.50938023 58.61676986 8.04931641 55.00097656 C7.13714355 54.48889648 6.2249707 53.97681641 5.28515625 53.44921875 C4.47957275 52.99893311 3.67398926 52.54864746 2.84399414 52.0847168 C1 51 1 51 0 50 C-0.09326716 48.43452952 -0.11745582 46.86487228 -0.11352539 45.29663086 C-0.11344986 44.29566879 -0.11337433 43.29470673 -0.11329651 42.26341248 C-0.10813522 41.1748848 -0.10297394 40.08635712 -0.09765625 38.96484375 C-0.0962413 37.85645645 -0.09482635 36.74806915 -0.09336853 35.60609436 C-0.08775033 32.04986931 -0.07519475 28.49370617 -0.0625 24.9375 C-0.05748734 22.53320403 -0.05292403 20.12890708 -0.04882812 17.72460938 C-0.03777499 11.81638496 -0.02101917 5.9081969 0 0 Z " fill="#121212" transform="translate(35,54)"/>
<path d="M0 0 C0 1.32 0 2.64 0 4 C-0.66 4 -1.32 4 -2 4 C-2.04125 4.61875 -2.0825 5.2375 -2.125 5.875 C-2.558125 6.926875 -2.558125 6.926875 -3 8 C-3.969375 8.309375 -4.93875 8.61875 -5.9375 8.9375 C-6.948125 9.288125 -7.95875 9.63875 -9 10 C-9.2475 10.825 -9.495 11.65 -9.75 12.5 C-10.1625 13.325 -10.575 14.15 -11 15 C-14.27750918 16.07971456 -17.58154942 16.57742401 -21 17 C-24 13.25 -24 13.25 -24 11 C-24.66 11 -25.32 11 -26 11 C-25.67 12.32 -25.34 13.64 -25 15 C-33.56097561 17.2195122 -33.56097561 17.2195122 -36 16 C-35.67 16.99 -35.34 17.98 -35 19 C-35.99 19.33 -36.98 19.66 -38 20 C-38.33 20.66 -38.66 21.32 -39 22 C-41.0625 23.125 -41.0625 23.125 -43 24 C-43.66 23.34 -44.32 22.68 -45 22 C-43.88625 21.4225 -42.7725 20.845 -41.625 20.25 C-38.66807857 18.57739798 -37.07684279 17.35017758 -36 14 C-34.88625 14.1546875 -34.88625 14.1546875 -33.75 14.3125 C-32.8425 14.209375 -31.935 14.10625 -31 14 C-30.360625 13.195625 -29.72125 12.39125 -29.0625 11.5625 C-27 9 -27 9 -24.3046875 8.59375 C-19.65923137 7.7591054 -16.19282569 5.31761133 -12.29882812 2.79492188 C-8.02052727 0.17487717 -4.97793353 -0.40052339 0 0 Z " fill="#090708" transform="translate(166,7)"/>
<path d="M0 0 C4.03919345 4.03919345 6.84168113 7.39787822 10 12 C9.34 12.33 8.68 12.66 8 13 C8 14.32 8 15.64 8 17 C7.34 17 6.68 17 6 17 C5.95875 17.598125 5.9175 18.19625 5.875 18.8125 C4.56974595 22.07563511 2.07310023 22.49480805 -1 24 C-1.309375 24.70125 -1.61875 25.4025 -1.9375 26.125 C-2.288125 26.74375 -2.63875 27.3625 -3 28 C-4.02480469 28.11601563 -5.04960937 28.23203125 -6.10546875 28.3515625 C-10.69893815 29.11637285 -13.52303577 30.76413646 -17.375 33.25 C-18.69090124 34.06721999 -20.00730598 34.8836298 -21.32421875 35.69921875 C-21.95376465 36.09415527 -22.58331055 36.4890918 -23.23193359 36.89599609 C-25.52621583 38.32857608 -27.84316542 39.71343847 -30.1875 41.0625 C-30.84105469 41.44535156 -31.49460938 41.82820313 -32.16796875 42.22265625 C-34 43 -34 43 -38 43 C-39.25664978 40.09399739 -40 38.20395416 -40 35 C-34.25 33 -34.25 33 -32 33 C-32.33 33.99 -32.66 34.98 -33 36 C-33.66 36 -34.32 36 -35 36 C-34.34 36.99 -33.68 37.98 -33 39 C-31.02 38.34 -29.04 37.68 -27 37 C-27 36.01 -27 35.02 -27 34 C-26.278125 34.103125 -25.55625 34.20625 -24.8125 34.3125 C-20.89024534 33.87669393 -19.70002774 31.76752843 -17 29 C-14.375 28.375 -14.375 28.375 -12 28 C-11.484375 27.46375 -10.96875 26.9275 -10.4375 26.375 C-9.963125 25.92125 -9.48875 25.4675 -9 25 C-6.8125 25.3125 -6.8125 25.3125 -5 26 C-4.34 24.68 -3.68 23.36 -3 22 C-2.34 22 -1.68 22 -1 22 C-0.67 14.74 -0.34 7.48 0 0 Z " fill="#0B090A" transform="translate(282,70)"/>
<path d="M0 0 C0.33 0 0.66 0 1 0 C1 3.63 1 7.26 1 11 C0.34 10.34 -0.32 9.68 -1 9 C-1.33 9.66 -1.66 10.32 -2 11 C-2.66 11 -3.32 11 -4 11 C-4.66 12.65 -5.32 14.3 -6 16 C-5.34 16 -4.68 16 -4 16 C-4 16.66 -4 17.32 -4 18 C-7 20 -7 20 -11 20 C-11 20.66 -11 21.32 -11 22 C-14 24 -14 24 -17 24 C-17 24.66 -17 25.32 -17 26 C-18.24735567 26.6509259 -19.49801832 27.29551669 -20.75 27.9375 C-21.44609375 28.29714844 -22.1421875 28.65679687 -22.859375 29.02734375 C-25 30 -25 30 -29 31 C-29 28.03 -29 25.06 -29 22 C-28.34 22 -27.68 22 -27 22 C-26.67 20.68 -26.34 19.36 -26 18 C-24.39125 17.9071875 -24.39125 17.9071875 -22.75 17.8125 C-18.2681181 16.84142559 -17.64230711 15.55344749 -15 12 C-13.68 12 -12.36 12 -11 12 C-9.32260138 11.01810813 -7.65532623 10.01866229 -6 9 C-5.01 9 -4.02 9 -3 9 C-3 8.34 -3 7.68 -3 7 C-2.01 7 -1.02 7 0 7 C0 4.69 0 2.38 0 0 Z " fill="#060405" transform="translate(29,42)"/>
<path d="M0 0 C0 0.99 0 1.98 0 3 C-1.2065625 3.37125 -1.2065625 3.37125 -2.4375 3.75 C-5.171081 4.72238859 -5.171081 4.72238859 -5.8125 7.125 C-5.9053125 8.053125 -5.9053125 8.053125 -6 9 C-6.99 8.01 -7.98 7.02 -9 6 C-8.34 7.32 -7.68 8.64 -7 10 C-3.535 9.505 -3.535 9.505 0 9 C0 8.34 0 7.68 0 7 C0.66 7 1.32 7 2 7 C2 7.66 2 8.32 2 9 C2.66 8.67 3.32 8.34 4 8 C4.65213292 5.97536745 4.65213292 5.97536745 5 4 C5.66 4 6.32 4 7 4 C6.67 5.65 6.34 7.3 6 9 C5.45472656 9.15855469 4.90945312 9.31710938 4.34765625 9.48046875 C-2.89380798 11.72099016 -8.95813464 15.04016449 -15.31640625 19.13671875 C-15.89422852 19.50579346 -16.47205078 19.87486816 -17.06738281 20.25512695 C-18.74659853 21.33270984 -20.4145789 22.42774002 -22.08203125 23.5234375 C-25 25 -25 25 -27.38671875 24.7265625 C-28.18529297 24.36691406 -28.18529297 24.36691406 -29 24 C-28.67 23.34 -28.34 22.68 -28 22 C-27.01 22.33 -26.02 22.66 -25 23 C-25 22.34 -25 21.68 -25 21 C-25.66 21 -26.32 21 -27 21 C-27 20.01 -27 19.02 -27 18 C-28.32 17.67 -29.64 17.34 -31 17 C-29.88625 16.525625 -28.7725 16.05125 -27.625 15.5625 C-25.73289006 14.74693537 -23.84287291 13.92143645 -22 13 C-21.67 12.01 -21.34 11.02 -21 10 C-19.4221875 9.9071875 -19.4221875 9.9071875 -17.8125 9.8125 C-13.2491045 8.83997309 -12.19618901 7.27414484 -9 4 C-6.38070744 2.77267434 -3.75229133 1.91743044 -1 1 C-0.67 0.67 -0.34 0.34 0 0 Z " fill="#090708" transform="translate(149,126)"/>
<path d="M0 0 C4.62 0 9.24 0 14 0 C14 5.61 14 11.22 14 17 C9.38 17 4.76 17 0 17 C0 11.39 0 5.78 0 0 Z " fill="#050404" transform="translate(252,65)"/>
<path d="M0 0 C4.62 0 9.24 0 14 0 C14 5.61 14 11.22 14 17 C9.38 17 4.76 17 0 17 C0 11.39 0 5.78 0 0 Z " fill="#030202" transform="translate(193,65)"/>
<path d="M0 0 C3.465 1.485 3.465 1.485 7 3 C6.6295073 5.50049373 6.35335799 6.69597797 4.40527344 8.37207031 C3.73012695 8.77006836 3.05498047 9.16806641 2.359375 9.578125 C1.61816406 10.01640625 0.87695312 10.4546875 0.11328125 10.90625 C-0.66660156 11.3496875 -1.44648438 11.793125 -2.25 12.25 C-3.01441406 12.70890625 -3.77882813 13.1678125 -4.56640625 13.640625 C-11.52694908 17.67990374 -11.52694908 17.67990374 -16 17 C-16 16.34 -16 15.68 -16 15 C-16.66 15 -17.32 15 -18 15 C-18.33 13.35 -18.66 11.7 -19 10 C-16.85848185 8.88958318 -14.76143437 7.91053789 -12.5 7.0625 C-9.96397474 6.10470657 -9.96397474 6.10470657 -7.9375 4.4375 C-5.89943754 2.92538914 -4.432476 2.56757773 -2 2 C-1.34 1.34 -0.68 0.68 0 0 Z " fill="#070506" transform="translate(323,96)"/>
<path d="M0 0 C1.125 6.75 1.125 6.75 0 9 C-0.66 9 -1.32 9 -2 9 C-2.33 10.32 -2.66 11.64 -3 13 C-3.928125 13.020625 -4.85625 13.04125 -5.8125 13.0625 C-10.84952438 13.71277159 -14.5701181 16.75790311 -18.64453125 19.6015625 C-19.42183594 20.06304687 -20.19914062 20.52453125 -21 21 C-21.66 20.67 -22.32 20.34 -23 20 C-22.505 18.515 -22.505 18.515 -22 17 C-20.67696283 16.6278958 -19.34262065 16.29369827 -18 16 C-17.67 15.34 -17.34 14.68 -17 14 C-16.01 14 -15.02 14 -14 14 C-14.99 13.01 -15.98 12.02 -17 11 C-17 11.33 -17 11.66 -17 12 C-18.65 12 -20.3 12 -22 12 C-21.34 11.67 -20.68 11.34 -20 11 C-19.34786708 8.97536745 -19.34786708 8.97536745 -19 7 C-18.43410156 6.86722656 -17.86820312 6.73445313 -17.28515625 6.59765625 C-16.18494141 6.33275391 -16.18494141 6.33275391 -15.0625 6.0625 C-14.33160156 5.88847656 -13.60070312 5.71445313 -12.84765625 5.53515625 C-11.00030102 5.16112431 -11.00030102 5.16112431 -10 4 C-12.97 3.505 -12.97 3.505 -16 3 C-16 2.67 -16 2.34 -16 2 C-15.24074219 1.93941406 -14.48148438 1.87882812 -13.69921875 1.81640625 C-12.70535156 1.73261719 -11.71148437 1.64882812 -10.6875 1.5625 C-9.70136719 1.48128906 -8.71523437 1.40007812 -7.69921875 1.31640625 C-5.01023135 1.00119933 -2.69190636 0 0 0 Z " fill="#080607" transform="translate(95,85)"/>
<path d="M0 0 C0.33 0.66 0.66 1.32 1 2 C0.67 2.66 0.34 3.32 0 4 C0.66 4 1.32 4 2 4 C2 4.66 2 5.32 2 6 C3.32 5.01 4.64 4.02 6 3 C5.8125 4.8125 5.8125 4.8125 5 7 C0.82142857 10 0.82142857 10 -2 10 C-2 10.99 -2 11.98 -2 13 C-3.32 13 -4.64 13 -6 13 C-6 22.24 -6 31.48 -6 41 C-6.33 41 -6.66 41 -7 41 C-7 32.42 -7 23.84 -7 15 C-10.3339728 14.33320544 -13.45655274 13.78812136 -16.8125 13.4375 C-17.60269531 13.35371094 -18.39289063 13.26992188 -19.20703125 13.18359375 C-20.09455078 13.09271484 -20.09455078 13.09271484 -21 13 C-20.67 11.68 -20.34 10.36 -20 9 C-18.741875 8.71125 -17.48375 8.4225 -16.1875 8.125 C-13.1460601 7.42696461 -11.69330122 6.79553415 -9 5 C-8.01 5 -7.02 5 -6 5 C-6 4.34 -6 3.68 -6 3 C-4.02 2.01 -2.04 1.02 0 0 Z " fill="#070506" transform="translate(282,46)"/>
<path d="M0 0 C0.08082094 1.95766281 0.13910778 3.91626728 0.1875 5.875 C0.23970703 7.51082031 0.23970703 7.51082031 0.29296875 9.1796875 C0.19628906 10.11039063 0.09960938 11.04109375 0 12 C-3.23766851 14.15844568 -5.20795531 14.45827933 -9 15 C-10.33737094 15.31674575 -11.67288808 15.64270064 -13 16 C-12.0409375 15.13375 -12.0409375 15.13375 -11.0625 14.25 C-9.01776132 12.01937599 -8.41794801 10.92563609 -8 8 C-9.32 8 -10.64 8 -12 8 C-12.33 9.32 -12.66 10.64 -13 12 C-13.33 11.01 -13.66 10.02 -14 9 C-14.66 9 -15.32 9 -16 9 C-15.34 10.98 -14.68 12.96 -14 15 C-15.5 16.1875 -15.5 16.1875 -18 17 C-20.78824238 16.27101296 -23.37665092 15.1843275 -26 14 C-26 15.32 -26 16.64 -26 18 C-26.66 18 -27.32 18 -28 18 C-28.33 18.66 -28.66 19.32 -29 20 C-29.33 19.01 -29.66 18.02 -30 17 C-29.34 16.34 -28.68 15.68 -28 15 C-27.34 14.01 -26.68 13.02 -26 12 C-23.5625 11.875 -23.5625 11.875 -21 12 C-20.01 11.67 -19.02 11.34 -18 11 C-17.26676204 8.98491642 -17.26676204 8.98491642 -17 7 C-16.29359375 6.89816406 -15.5871875 6.79632813 -14.859375 6.69140625 C-11.59886595 5.90300447 -9.15799021 4.59977008 -6.25 2.9375 C-1.08 0 -1.08 0 0 0 Z " fill="#090708" transform="translate(30,85)"/>
<path d="M0 0 C0.33 0 0.66 0 1 0 C1 9.57 1 19.14 1 29 C2.32 29 3.64 29 5 29 C5 29.66 5 30.32 5 31 C3.00715862 32.3440093 1.00580329 33.67541292 -1 35 C-2.70328319 36.6292274 -4.38161281 38.28641357 -6 40 C-6.99 39.67 -7.98 39.34 -9 39 C-8.67 38.01 -8.34 37.02 -8 36 C-9.98 36.495 -9.98 36.495 -12 37 C-12 37.66 -12 38.32 -12 39 C-13.485 39.495 -13.485 39.495 -15 40 C-15.3125 36.75 -15.3125 36.75 -15 33 C-12.9375 30.5625 -12.9375 30.5625 -10 29 C-6.1875 28.75 -6.1875 28.75 -3 29 C-3 27.02 -3 25.04 -3 23 C-2.67 23.66 -2.34 24.32 -2 25 C-1.34 25 -0.68 25 0 25 C0 16.75 0 8.5 0 0 Z " fill="#1A1819" transform="translate(159,59)"/>
<path d="M0 0 C3.54741874 1.000554 6.16009903 2.68600662 9 5 C7.02 6.32 5.04 7.64 3 9 C2.34 8.67 1.68 8.34 1 8 C1.33 6.68 1.66 5.36 2 4 C-0.9421942 3.77102171 -0.9421942 3.77102171 -3.0625 5.0625 C-3.701875 5.371875 -4.34125 5.68125 -5 6 C-5.66 5.67 -6.32 5.34 -7 5 C-7.33 5.66 -7.66 6.32 -8 7 C-7.34 7 -6.68 7 -6 7 C-5.67 7.99 -5.34 8.98 -5 10 C-4.01 10.66 -3.02 11.32 -2 12 C-3.74681293 12.98484108 -5.4975851 13.96266187 -7.25 14.9375 C-8.22453125 15.48277344 -9.1990625 16.02804688 -10.203125 16.58984375 C-12.53610409 17.76610835 -14.45350762 18.52101691 -17 19 C-17.66 18.01 -18.32 17.02 -19 16 C-18.34 15.67 -17.68 15.34 -17 15 C-17 14.34 -17 13.68 -17 13 C-17.66 12.67 -18.32 12.34 -19 12 C-19.33 12.66 -19.66 13.32 -20 14 C-19.74609375 12.09375 -19.74609375 12.09375 -19 10 C-17.22265625 9.09375 -17.22265625 9.09375 -15.0625 8.5 C-11.71504674 7.4770708 -11.71504674 7.4770708 -9.5 4.8125 C-9.335 4.214375 -9.17 3.61625 -9 3 C-6.03 3.495 -6.03 3.495 -3 4 C-3 3.34 -3 2.68 -3 2 C-2.01 1.34 -1.02 0.68 0 0 Z " fill="#060405" transform="translate(75,132)"/>
<path d="M0 0 C0.63742849 3.18714246 0.85753413 5.84201502 0 9 C-3.72052695 12.39164059 -7.89912955 15 -13 15 C-13 14.34 -13 13.68 -13 13 C-14.32 13.33 -15.64 13.66 -17 14 C-17.66 13.01 -18.32 12.02 -19 11 C-18.125 8.3125 -18.125 8.3125 -17 6 C-15.63875 6.1546875 -15.63875 6.1546875 -14.25 6.3125 C-10.8187655 6.34693784 -10.8187655 6.34693784 -8.75 3.5625 C-7.88375 2.2940625 -7.88375 2.2940625 -7 1 C-4.53721199 -0.231394 -2.7204945 -0.07159196 0 0 Z " fill="#070506" transform="translate(333,129)"/>
<path d="M0 0 C0.75 1.6875 0.75 1.6875 1 4 C-1.4568887 7.87432448 -4.11799461 9.71061221 -8 12 C-8.6496875 13.0209375 -8.6496875 13.0209375 -9.3125 14.0625 C-11.59288556 16.68072045 -13.67856787 16.82057439 -17 17.4921875 C-19.64950245 18.16491273 -21.69024703 19.57338787 -24 21 C-24.66 20.67 -25.32 20.34 -26 20 C-24.875 18.0625 -24.875 18.0625 -23 16 C-19.8125 15.25 -19.8125 15.25 -17 15 C-18.3089572 11.87802522 -18.3089572 11.87802522 -21 10 C-17.7 8.02 -14.4 6.04 -11 4 C-11.33 5.32 -11.66 6.64 -12 8 C-12.99 8.33 -13.98 8.66 -15 9 C-14.67 10.98 -14.34 12.96 -14 15 C-13.34 15 -12.68 15 -12 15 C-12 13.02 -12 11.04 -12 9 C-10.68 9 -9.36 9 -8 9 C-8 7.68 -8 6.36 -8 5 C-8.66 4.67 -9.32 4.34 -10 4 C-6.58908673 0.88145073 -4.68377325 -0.53528837 0 0 Z " fill="#0A0809" transform="translate(39,120)"/>
<path d="M0 0 C2 1 2 1 2.80078125 2.828125 C3 5 3 5 1.85546875 6.921875 C1.30503906 7.52515625 0.75460938 8.1284375 0.1875 8.75 C-0.35519531 9.36359375 -0.89789063 9.9771875 -1.45703125 10.609375 C-3 12 -3 12 -5 12 C-5 18.93 -5 25.86 -5 33 C-5.33 33 -5.66 33 -6 33 C-6 26.73 -6 20.46 -6 14 C-7.65 13.67 -9.3 13.34 -11 13 C-11.33 10.69 -11.66 8.38 -12 6 C-8.04 3.525 -8.04 3.525 -4 1 C-4 1.66 -4 2.32 -4 3 C-3.01 3 -2.02 3 -1 3 C-0.67 2.01 -0.34 1.02 0 0 Z " fill="#191718" transform="translate(222,47)"/>
<path d="M0 0 C1.32 0.33 2.64 0.66 4 1 C2.68 1.33 1.36 1.66 0 2 C-0.66 4.97 -1.32 7.94 -2 11 C0.51083114 9.74458443 0.87125446 8.49936512 2 6 C2 6.66 2 7.32 2 8 C5.48249231 6.74243333 8.06465849 5.2268108 11 3 C11.66 3 12.32 3 13 3 C13 3.66 13 4.32 13 5 C10.28557554 7.1342968 7.26114521 8.83353321 4.3125 10.625 C3.49587891 11.140625 2.67925781 11.65625 1.83789062 12.1875 C1.04189453 12.67476562 0.24589844 13.16203125 -0.57421875 13.6640625 C-1.30213623 14.11217285 -2.03005371 14.5602832 -2.7800293 15.02197266 C-5.39108614 16.17229639 -7.17487602 16.30823821 -10 16 C-11.875 14.25 -11.875 14.25 -13 12 C-12.84375 9.984375 -12.84375 9.984375 -12 8 C-10.0390625 6.875 -10.0390625 6.875 -7.625 6 C-4.04963391 4.56757988 -1.88858089 3.52535099 0 0 Z " fill="#090708" transform="translate(317,21)"/>
<path d="M0 0 C0.70664795 0.38623535 1.4132959 0.7724707 2.14135742 1.17041016 C1.81135742 2.16041016 1.48135742 3.15041016 1.14135742 4.17041016 C0.39885742 4.29416016 -0.34364258 4.41791016 -1.10864258 4.54541016 C-4.83702597 5.39277002 -7.15278787 6.46455545 -9.85864258 9.17041016 C-15.2817195 12.17041016 -15.2817195 12.17041016 -18.85864258 12.17041016 C-18.85864258 12.83041016 -18.85864258 13.49041016 -18.85864258 14.17041016 C-21.49864258 15.16041016 -24.13864258 16.15041016 -26.85864258 17.17041016 C-26.85864258 15.85041016 -26.85864258 14.53041016 -26.85864258 13.17041016 C-23.31053341 10.21168112 -19.17284783 8.08932276 -15.17114258 5.79541016 C-14.06834961 5.12896484 -12.96555664 4.46251953 -11.8293457 3.77587891 C-10.76264648 3.15583984 -9.69594727 2.53580078 -8.59692383 1.89697266 C-7.61763916 1.32543457 -6.63835449 0.75389648 -5.62939453 0.16503906 C-2.85864258 -0.82958984 -2.85864258 -0.82958984 0 0 Z " fill="#0D0B0C" transform="translate(87.858642578125,18.82958984375)"/>
<path d="M0 0 C0.66 0.99 1.32 1.98 2 3 C1.40388916 3.34554932 0.80777832 3.69109863 0.19360352 4.04711914 C-2.68453614 5.7170155 -5.5609751 7.38982369 -8.4375 9.0625 C-9.50395752 9.68068604 -10.57041504 10.29887207 -11.66918945 10.93579102 C-17.48742226 14.32095237 -23.2635342 17.75729102 -28.984375 21.3046875 C-30.66768921 22.3409729 -30.66768921 22.3409729 -32.38500977 23.39819336 C-34.55968643 24.74106866 -36.72710007 26.09578908 -38.88647461 27.46313477 C-39.87655518 28.07213623 -40.86663574 28.6811377 -41.88671875 29.30859375 C-42.75514404 29.85314209 -43.62356934 30.39769043 -44.51831055 30.95874023 C-47.47844578 32.20074484 -48.97675853 31.92650452 -52 31 C-51.45085937 30.73300293 -50.90171875 30.46600586 -50.3359375 30.19091797 C-45.45097348 27.70044405 -40.7469878 24.8665958 -36 22.125 C-35.42596436 21.79418427 -34.85192871 21.46336853 -34.26049805 21.12252808 C-25.42751734 16.03084379 -16.65456523 10.84618044 -7.96875 5.50634766 C-7.205625 5.04147949 -6.4425 4.57661133 -5.65625 4.09765625 C-4.99431641 3.69039307 -4.33238281 3.28312988 -3.65039062 2.86352539 C-2 2 -2 2 0 2 C0 1.34 0 0.68 0 0 Z " fill="#1B1A1A" transform="translate(135,101)"/>
<path d="M0 0 C-0.46046405 4.55700628 -1.88619012 6.24588505 -5.375 9.125 C-8.02067214 11.33978091 -10.60556926 13.51288162 -13 16 C-13 13.69 -13 11.38 -13 9 C-11.68 8.67 -10.36 8.34 -9 8 C-9.33 7.01 -9.66 6.02 -10 5 C-14.57748509 7.8795976 -14.57748509 7.8795976 -18 12 C-18 11.34 -18 10.68 -18 10 C-19.98 10.99 -21.96 11.98 -24 13 C-23.25 11.0625 -23.25 11.0625 -22 9 C-19.875 8.25 -19.875 8.25 -18 8 C-18 7.34 -18 6.68 -18 6 C-6.66287016 -0.88838269 -6.66287016 -0.88838269 0 0 Z " fill="#0A0809" transform="translate(290,7)"/>
<path d="M0 0 C1.670625 0.061875 1.670625 0.061875 3.375 0.125 C2.85231534 2.88776177 2.26630413 5.4510876 1.375 8.125 C-1.86333582 9.99603847 -4.94485875 11.41728053 -8.625 12.125 C-8.955 10.805 -9.285 9.485 -9.625 8.125 C-10.285 8.125 -10.945 8.125 -11.625 8.125 C-11.625 7.135 -11.625 6.145 -11.625 5.125 C-10.67625 4.67125 -9.7275 4.2175 -8.75 3.75 C-1.64772727 0.05681818 -1.64772727 0.05681818 0 0 Z " fill="#0C0A0B" transform="translate(99.625,44.875)"/>
<path d="M0 0 C0.33 0.99 0.66 1.98 1 3 C4.3 2.67 7.6 2.34 11 2 C11.33 2.66 11.66 3.32 12 4 C11.01 4.495 11.01 4.495 10 5 C10.66 6.32 11.32 7.64 12 9 C11.30132812 9.27714844 10.60265625 9.55429687 9.8828125 9.83984375 C8.97273438 10.20207031 8.06265625 10.56429687 7.125 10.9375 C6.22007813 11.29714844 5.31515625 11.65679687 4.3828125 12.02734375 C2.03862333 12.94901262 2.03862333 12.94901262 0 14 C-1.17635297 11.64729407 -1.13359359 10.179248 -1.125 7.5625 C-1.12757812 6.78003906 -1.13015625 5.99757813 -1.1328125 5.19140625 C-1 3 -1 3 0 0 Z " fill="#0E0D0E" transform="translate(77,52)"/>
<path d="M0 0 C1.65 0 3.3 0 5 0 C5 1.98 5 3.96 5 6 C4.34 4.68 3.68 3.36 3 2 C2.34 2 1.68 2 1 2 C1.33 2.99 1.66 3.98 2 5 C1.1646875 5.0928125 1.1646875 5.0928125 0.3125 5.1875 C-2.33691931 6.11837706 -3.42820373 7.50101479 -5.296875 9.5234375 C-9.01163396 12.74403128 -13.64138804 14.77871089 -18 17 C-18 16.01 -18 15.02 -18 14 C-16.55612482 12.72020154 -15.10180047 11.44815491 -13.57421875 10.26953125 C-11.83472139 8.9447532 -11.83472139 8.9447532 -10.0625 6.75 C-7.21001185 4.32970703 -4.65663994 4.28128 -1 4 C-0.67 2.68 -0.34 1.36 0 0 Z " fill="#0E0C0D" transform="translate(139,92)"/>
<path d="M0 0 C3.54741874 1.000554 6.16009903 2.68600662 9 5 C7.02 6.32 5.04 7.64 3 9 C2.34 8.67 1.68 8.34 1 8 C1.33 6.68 1.66 5.36 2 4 C-0.9421942 3.77102171 -0.9421942 3.77102171 -3.0625 5.0625 C-3.701875 5.371875 -4.34125 5.68125 -5 6 C-5.66 5.67 -6.32 5.34 -7 5 C-7.33 5.99 -7.66 6.98 -8 8 C-8.99 7.67 -9.98 7.34 -11 7 C-10.34 5.68 -9.68 4.36 -9 3 C-6.03 3.495 -6.03 3.495 -3 4 C-3 3.34 -3 2.68 -3 2 C-2.01 1.34 -1.02 0.68 0 0 Z M-11 8 C-11 8.66 -11 9.32 -11 10 C-12.96466413 11.06775224 -14.96855359 12.06553465 -17 13 C-17.66 12.67 -18.32 12.34 -19 12 C-19.33 12.66 -19.66 13.32 -20 14 C-19.875 12.125 -19.875 12.125 -19 10 C-16.25822503 8.83328724 -13.99432393 8 -11 8 Z " fill="#0B090A" transform="translate(75,132)"/>
<path d="M0 0 C1.79244141 0.01740234 1.79244141 0.01740234 3.62109375 0.03515625 C5.41740234 0.04869141 5.41740234 0.04869141 7.25 0.0625 C8.17683594 0.07410156 9.10367188 0.08570313 10.05859375 0.09765625 C10.05859375 1.74765625 10.05859375 3.39765625 10.05859375 5.09765625 C5.10859375 5.09765625 0.15859375 5.09765625 -4.94140625 5.09765625 C-3.69768345 0.12276505 -3.69768345 0.12276505 0 0 Z " fill="#FCFCFC" transform="translate(145.94140625,58.90234375)"/>
<path d="M0 0 C0.33 0.99 0.66 1.98 1 3 C-4.75 7 -4.75 7 -7 7 C-7 7.99 -7 8.98 -7 10 C-8.32 10 -9.64 10 -11 10 C-11 19.24 -11 28.48 -11 38 C-11.33 38 -11.66 38 -12 38 C-12 29.42 -12 20.84 -12 12 C-13.32 11.67 -14.64 11.34 -16 11 C-14.75 9.5 -14.75 9.5 -13 8 C-11.68 8 -10.36 8 -9 8 C-9 7.34 -9 6.68 -9 6 C-8.01 5.67 -7.02 5.34 -6 5 C-5.26676204 2.98491642 -5.26676204 2.98491642 -5 1 C-4.34 1 -3.68 1 -3 1 C-3 1.66 -3 2.32 -3 3 C-2.01 2.01 -1.02 1.02 0 0 Z " fill="#100F10" transform="translate(287,49)"/>
<path d="M0 0 C0.33 0 0.66 0 1 0 C1 3.63 1 7.26 1 11 C0.34 10.34 -0.32 9.68 -1 9 C-1.33 9.66 -1.66 10.32 -2 11 C-2.66 11 -3.32 11 -4 11 C-4.66 12.65 -5.32 14.3 -6 16 C-5.34 16 -4.68 16 -4 16 C-4 16.66 -4 17.32 -4 18 C-4.99 18.66 -5.98 19.32 -7 20 C-7.99 19.67 -8.98 19.34 -10 19 C-9.01 18.67 -8.02 18.34 -7 18 C-7.66 16.68 -8.32 15.36 -9 14 C-9.99 15.32 -10.98 16.64 -12 18 C-12.99 17.01 -13.98 16.02 -15 15 C-15.99 15.495 -15.99 15.495 -17 16 C-16.34 14.68 -15.68 13.36 -15 12 C-13.68 12 -12.36 12 -11 12 C-9.32260138 11.01810813 -7.65532623 10.01866229 -6 9 C-5.01 9 -4.02 9 -3 9 C-3 8.34 -3 7.68 -3 7 C-2.01 7 -1.02 7 0 7 C0 4.69 0 2.38 0 0 Z " fill="#0D0B0C" transform="translate(29,42)"/>
<path d="M0 0 C0.33 0 0.66 0 1 0 C1 3.96 1 7.92 1 12 C-0.98 12.66 -2.96 13.32 -5 14 C-4.67 13.01 -4.34 12.02 -4 11 C-3.34 11 -2.68 11 -2 11 C-2.66 9.68 -3.32 8.36 -4 7 C-4.99 7.66 -5.98 8.32 -7 9 C-8.32 9 -9.64 9 -11 9 C-11 9.99 -11 10.98 -11 12 C-11.66 12 -12.32 12 -13 12 C-12.67 10.35 -12.34 8.7 -12 7 C-11.07767578 6.74476562 -11.07767578 6.74476562 -10.13671875 6.484375 C-4.00370626 4.75060779 -4.00370626 4.75060779 0 0 Z " fill="#090809" transform="translate(130,60)"/>
<path d="M0 0 C-1.25 2 -1.25 2 -3 4 C-4.32 4 -5.64 4 -7 4 C-7 4.66 -7 5.32 -7 6 C-7.99 6.33 -8.98 6.66 -10 7 C-11.20882096 9.00016466 -11.20882096 9.00016466 -12 11 C-12.66 10.34 -13.32 9.68 -14 9 C-14 9.33 -14 9.66 -14 10 C-15.65 10 -17.3 10 -19 10 C-18.34 9.67 -17.68 9.34 -17 9 C-16.34786708 6.97536745 -16.34786708 6.97536745 -16 5 C-15.43410156 4.86722656 -14.86820312 4.73445313 -14.28515625 4.59765625 C-13.18494141 4.33275391 -13.18494141 4.33275391 -12.0625 4.0625 C-11.33160156 3.88847656 -10.60070312 3.71445313 -9.84765625 3.53515625 C-8.00030102 3.16112431 -8.00030102 3.16112431 -7 2 C-9.97 1.505 -9.97 1.505 -13 1 C-13 0.67 -13 0.34 -13 0 C-11.20909747 -0.19466332 -9.41723495 -0.38051213 -7.625 -0.5625 C-6.12839844 -0.71912109 -6.12839844 -0.71912109 -4.6015625 -0.87890625 C-2 -1 -2 -1 0 0 Z " fill="#0B090A" transform="translate(92,87)"/>
<path d="M0 0 C-0.57584432 2.38564077 -1.22227595 4.66682784 -2 7 C-2.99 7.33 -3.98 7.66 -5 8 C-5 6.68 -5 5.36 -5 4 C-4.34 3.67 -3.68 3.34 -3 3 C-4.32 3 -5.64 3 -7 3 C-6.67 4.98 -6.34 6.96 -6 9 C-8.64 7.68 -11.28 6.36 -14 5 C-13.34 4.34 -12.68 3.68 -12 3 C-11.01 3 -10.02 3 -9 3 C-9 2.34 -9 1.68 -9 1 C-6.04335481 -0.4783226 -3.25770263 -0.06032783 0 0 Z " fill="#0C0A0B" transform="translate(103,7)"/>
<path d="M0 0 C1.65 1.65 3.3 3.3 5 5 C4.34 5 3.68 5 3 5 C2.67 5.99 2.34 6.98 2 8 C0.68 7.34 -0.64 6.68 -2 6 C-2.99 7.485 -2.99 7.485 -4 9 C-7.04907647 10.99767079 -9.39697197 11.20016822 -13 11 C-8.98745115 7.48901975 -4.79016959 5.23462006 0 3 C0 2.01 0 1.02 0 0 Z " fill="#0C0A0B" transform="translate(219,82)"/>
<path d="M0 0 C1.36125 0.12375 1.36125 0.12375 2.75 0.25 C3.4375 2 3.4375 2 3.75 4.25 C2.3125 6.5 2.3125 6.5 0.75 8.25 C-1.76083114 6.99458443 -2.12125446 5.74936512 -3.25 3.25 C-3.58 3.91 -3.91 4.57 -4.25 5.25 C-5.24 4.92 -6.23 4.59 -7.25 4.25 C-4.83923194 1.28290085 -3.90322061 0.30024774 0 0 Z " fill="#0A0809" transform="translate(225.25,44.75)"/>
<path d="M0 0 C3.96 0 7.92 0 12 0 C8.11690718 3.64775386 5.28798182 4.58525633 0 5 C0 3.35 0 1.7 0 0 Z " fill="#0B0A0A" transform="translate(253,65)"/>
<path d="M0 0 C0.66 0.33 1.32 0.66 2 1 C0.64649404 5.06051787 -1.27512664 5.64228453 -4.9375 7.75 C-6.01902344 8.38421875 -7.10054688 9.0184375 -8.21484375 9.671875 C-9.13394531 10.11015625 -10.05304688 10.5484375 -11 11 C-11.66 10.67 -12.32 10.34 -13 10 C-11.84826645 7.53199953 -10.95216435 5.95216435 -9 4 C-7.68 4 -6.36 4 -5 4 C-1.82533557 2.75759314 -1.82533557 2.75759314 0 0 Z " fill="#0B090A" transform="translate(328,99)"/>
<path d="M0 0 C3.63 0 7.26 0 11 0 C7.53258866 2.95749791 4.13126473 5.07848152 0 7 C0 4.69 0 2.38 0 0 Z " fill="#090708" transform="translate(193,65)"/>
<path d="M0 0 C-0.66 1.32 -1.32 2.64 -2 4 C2.95 4 7.9 4 13 4 C13 4.33 13 4.66 13 5 C6.73 5 0.46 5 -6 5 C-6 3.35 -6 1.7 -6 0 C-2.25 -1.125 -2.25 -1.125 0 0 Z " fill="#E9E9E9" transform="translate(143,60)"/>
<path d="M0 0 C0.33 0.66 0.66 1.32 1 2 C-1.28874173 3.33858524 -3.58069656 4.67101014 -5.875 6 C-6.52597656 6.3815625 -7.17695313 6.763125 -7.84765625 7.15625 C-12.7734375 10 -12.7734375 10 -15 10 C-15.33 8.68 -15.66 7.36 -16 6 C-15.01 6 -14.02 6 -13 6 C-10.29248806 5.09749602 -8.21753996 4.164803 -5.9375 2.4375 C-3.92312271 0.94296201 -2.44506011 0.43661788 0 0 Z " fill="#0B090A" transform="translate(20,22)"/>
<path d="M0 0 C3.45925163 1.2491742 6.14693203 2.67527795 9 5 C7.02 6.32 5.04 7.64 3 9 C2.34 8.67 1.68 8.34 1 8 C1.20625 7.4225 1.4125 6.845 1.625 6.25 C2.08661261 3.48032433 1.42944945 2.35438733 0 0 Z " fill="#131112" transform="translate(75,132)"/>
<path d="M0 0 C0 0.66 0 1.32 0 2 C-0.66 2 -1.32 2 -2 2 C-2 2.66 -2 3.32 -2 4 C-3.24735567 4.6509259 -4.49801832 5.29551669 -5.75 5.9375 C-6.44609375 6.29714844 -7.1421875 6.65679687 -7.859375 7.02734375 C-9.90224433 7.95558182 -11.81115376 8.53166578 -14 9 C-12.71034824 7.62437146 -11.37310707 6.29233607 -10 5 C-9.34 5 -8.68 5 -8 5 C-8.33 4.01 -8.66 3.02 -9 2 C-8.01 2 -7.02 2 -6 2 C-1.875 0 -1.875 0 0 0 Z " fill="#0C0A0B" transform="translate(202,102)"/>
<path d="M0 0 C-1.71663118 1.20555009 -3.44888468 2.38887724 -5.1875 3.5625 C-6.63189453 4.55443359 -6.63189453 4.55443359 -8.10546875 5.56640625 C-11.36518683 7.18086851 -12.61520953 7.13238877 -16 6 C-15.43410156 5.72542969 -14.86820312 5.45085937 -14.28515625 5.16796875 C-11.14612933 3.56357721 -8.14514754 1.73613385 -5.12109375 -0.07421875 C-3 -1 -3 -1 0 0 Z " fill="#242323" transform="translate(99,126)"/>
<path d="M0 0 C4.06225548 0.57823096 6.84762346 1.89117737 10.3125 4.0625 C11.19550781 4.61035156 12.07851562 5.15820312 12.98828125 5.72265625 C13.65214844 6.14417969 14.31601563 6.56570312 15 7 C12 8 12 8 9.08203125 6.6015625 C8.00308594 5.94929688 6.92414063 5.29703125 5.8125 4.625 C4.72582031 3.97789063 3.63914062 3.33078125 2.51953125 2.6640625 C1.68808594 2.11492188 0.85664062 1.56578125 0 1 C0 0.67 0 0.34 0 0 Z " fill="#1E1D1D" transform="translate(104,26)"/>
<path d="M0 0 C2.31 0 4.62 0 7 0 C7 0.66 7 1.32 7 2 C5.02 2 3.04 2 1 2 C1 2.99 1 3.98 1 5 C0.34 5 -0.32 5 -1 5 C-1.33 5.99 -1.66 6.98 -2 8 C-2.33 6.68 -2.66 5.36 -3 4 C-2.34 4 -1.68 4 -1 4 C-0.67 2.68 -0.34 1.36 0 0 Z " fill="#0B090A" transform="translate(3,60)"/>
<path d="M0 0 C0.99 0.99 1.98 1.98 3 3 C1.67649489 5.64701022 0.79571502 6.04357118 -2 7 C-5.75 6.625 -5.75 6.625 -9 6 C-8.67 5.34 -8.34 4.68 -8 4 C-7.4225 4.20625 -6.845 4.4125 -6.25 4.625 C-3.48032433 5.08661261 -2.35438733 4.42944945 0 3 C0 2.01 0 1.02 0 0 Z " fill="#0A0809" transform="translate(201,17)"/>
<path d="M0 0 C1.65 0 3.3 0 5 0 C5 0.66 5 1.32 5 2 C4.01 2.33 3.02 2.66 2 3 C1.67 3.66 1.34 4.32 1 5 C0.34 5 -0.32 5 -1 5 C-1.33 5.99 -1.66 6.98 -2 8 C-3.32 7.67 -4.64 7.34 -6 7 C-5.195625 6.21625 -4.39125 5.4325 -3.5625 4.625 C-1.01309583 2.28017144 -1.01309583 2.28017144 0 0 Z " fill="#0B090A" transform="translate(316,60)"/>
<path d="M0 0 C0.33 0.66 0.66 1.32 1 2 C0.67 2.66 0.34 3.32 0 4 C-1.65 3.67 -3.3 3.34 -5 3 C-5.66 4.32 -6.32 5.64 -7 7 C-7.99 6.67 -8.98 6.34 -10 6 C-8.3125 3.5 -8.3125 3.5 -6 1 C-3.3125 0.75 -3.3125 0.75 -1 1 C-0.67 0.67 -0.34 0.34 0 0 Z " fill="#0B090A" transform="translate(10,134)"/>
<path d="M0 0 C1.5625 1.25 1.5625 1.25 3 3 C2.6875 5.1875 2.6875 5.1875 2 7 C-1.465 5.02 -1.465 5.02 -5 3 C-3 1 -3 1 0 0 Z " fill="#191819" transform="translate(94,9)"/>
<path d="M0 0 C3.1875 0.875 3.1875 0.875 6 2 C5.01 2.33 4.02 2.66 3 3 C2.67 3.99 2.34 4.98 2 6 C0.35 4.68 -1.3 3.36 -3 2 C-2.01 1.34 -1.02 0.68 0 0 Z " fill="#E4E3E4" transform="translate(121,30)"/>
<path d="M0 0 C0.66 0.33 1.32 0.66 2 1 C2 1.66 2 2.32 2 3 C-1.41831915 5.5393228 -3.75776898 6.3636198 -8 6 C-6.32169152 2.64338305 -3.29210653 1.67493139 0 0 Z " fill="#0B090A" transform="translate(275,87)"/>
<path d="M0 0 C-1.3125 2 -1.3125 2 -3 4 C-3.99 4 -4.98 4 -6 4 C-6 3.34 -6 2.68 -6 2 C-8.31 1.67 -10.62 1.34 -13 1 C-13 0.67 -13 0.34 -13 0 C-11.20909747 -0.19466332 -9.41723495 -0.38051213 -7.625 -0.5625 C-6.12839844 -0.71912109 -6.12839844 -0.71912109 -4.6015625 -0.87890625 C-2 -1 -2 -1 0 0 Z " fill="#343233" transform="translate(92,87)"/>
<path d="M0 0 C2.625 0.9375 2.625 0.9375 5 2 C4.67 2.99 4.34 3.98 4 5 C2.35 5 0.7 5 -1 5 C-1.33 3.68 -1.66 2.36 -2 1 C-1.34 0.67 -0.68 0.34 0 0 Z " fill="#110F10" transform="translate(85,18)"/>
<path d="M0 0 C2.475 0.99 2.475 0.99 5 2 C1.80009492 4.74277578 -1.00499382 6.6302836 -5 8 C-4.67 7.01 -4.34 6.02 -4 5 C-1.9375 4.3125 -1.9375 4.3125 0 4 C0 2.68 0 1.36 0 0 Z " fill="#0C0A0B" transform="translate(68,141)"/>
<path d="M0 0 C-6.59090909 5 -6.59090909 5 -10 5 C-9 2 -9 2 -7.25 0.8125 C-4.70039426 -0.10819096 -2.69076919 -0.14948718 0 0 Z " fill="#171516" transform="translate(95,124)"/>
<path d="M0 0 C0.66 0.66 1.32 1.32 2 2 C1.625 4.125 1.625 4.125 1 6 C0.01 5.34 -0.98 4.68 -2 4 C-2.99 4.33 -3.98 4.66 -5 5 C-4 2 -4 2 -1.9375 0.8125 C-1.298125 0.544375 -0.65875 0.27625 0 0 Z " fill="#0B090A" transform="translate(157,122)"/>
<path d="M0 0 C1.65 1.65 3.3 3.3 5 5 C4.34 5 3.68 5 3 5 C2.67 5.99 2.34 6.98 2 8 C0.4375 6.25 0.4375 6.25 -1 4 C-0.6875 1.75 -0.6875 1.75 0 0 Z " fill="#1D1B1C" transform="translate(219,82)"/>
<path d="M0 0 C2.64 0 5.28 0 8 0 C6.515 1.485 6.515 1.485 5 3 C4.34 2.67 3.68 2.34 3 2 C2.67 2.99 2.34 3.98 2 5 C1.34 5 0.68 5 0 5 C0 3.35 0 1.7 0 0 Z " fill="#030203" transform="translate(253,65)"/>
<path d="M0 0 C3.125 0.375 3.125 0.375 6 1 C4.515 2.485 4.515 2.485 3 4 C2.67 3.67 2.34 3.34 2 3 C1.67 3.66 1.34 4.32 1 5 C0.34 5 -0.32 5 -1 5 C-1.33 4.01 -1.66 3.02 -2 2 C-1.34 1.34 -0.68 0.68 0 0 Z " fill="#0B090A" transform="translate(202,54)"/>
<path d="M0 0 C4.12751449 0.60698743 7.3321148 2.03810791 11 4 C10.01 4.66 9.02 5.32 8 6 C6.66402348 5.19185349 5.331275 4.37836819 4 3.5625 C3.2575 3.11003906 2.515 2.65757813 1.75 2.19140625 C1.1725 1.79824219 0.595 1.40507813 0 1 C0 0.67 0 0.34 0 0 Z " fill="#1E1D1D" transform="translate(127,39)"/>
<path d="M0 0 C-1.28813342 0.83878455 -2.58063256 1.67086783 -3.875 2.5 C-4.59429687 2.9640625 -5.31359375 3.428125 -6.0546875 3.90625 C-8 5 -8 5 -10 5 C-10 4.34 -10 3.68 -10 3 C-3.375 -1.125 -3.375 -1.125 0 0 Z " fill="#1D1C1C" transform="translate(66,28)"/>
<path d="M0 0 C-1.32 0.99 -2.64 1.98 -4 3 C-5.65 1.68 -7.3 0.36 -9 -1 C-5.22102349 -2.0497157 -3.35080929 -2.10976881 0 0 Z " fill="#E7E6E7" transform="translate(95,15)"/>
<path d="M0 0 C0.99 0.66 1.98 1.32 3 2 C3 2.66 3 3.32 3 4 C-0.96 5.98 -0.96 5.98 -5 8 C-4.67 7.01 -4.34 6.02 -4 5 C-1.9375 4.3125 -1.9375 4.3125 0 4 C0 2.68 0 1.36 0 0 Z " fill="#0C0A0B" transform="translate(318,66)"/>
<path d="M0 0 C3.45925163 1.2491742 6.14693203 2.67527795 9 5 C6 6 6 6 4.17578125 5.22265625 C2.45052083 4.1484375 0.72526042 3.07421875 -1 2 C-0.67 1.34 -0.34 0.68 0 0 Z " fill="#2C2A2B" transform="translate(97,21)"/>
<path d="M0 0 C1.32 0.66 2.64 1.32 4 2 C2.04783565 3.95216435 0.46800047 4.84826645 -2 6 C-2.33 4.68 -2.66 3.36 -3 2 C-2.01 1.34 -1.02 0.68 0 0 Z " fill="#040203" transform="translate(35,8)"/>
<path d="M0 0 C0.66 0.99 1.32 1.98 2 3 C-1.96 4.98 -1.96 4.98 -6 7 C-6.33 6.34 -6.66 5.68 -7 5 C-2.25 2 -2.25 2 0 2 C0 1.34 0 0.68 0 0 Z " fill="#1F1E1E" transform="translate(135,101)"/>
<path d="M0 0 C0.99 0.33 1.98 0.66 3 1 C2.25 2.9375 2.25 2.9375 1 5 C-1.125 5.75 -1.125 5.75 -3 6 C-3.33 5.34 -3.66 4.68 -4 4 C-2.68 3.67 -1.36 3.34 0 3 C0 2.01 0 1.02 0 0 Z " fill="#111011" transform="translate(131,28)"/>
<path d="M0 0 C-1 3 -1 3 -4.0625 4.6875 C-5.031875 5.120625 -6.00125 5.55375 -7 6 C-7.66 5.34 -8.32 4.68 -9 4 C-2.25 0 -2.25 0 0 0 Z " fill="#292728" transform="translate(73,22)"/>
<path d="M0 0 C1.65 0.33 3.3 0.66 5 1 C4.34 1.66 3.68 2.32 3 3 C2.67 2.67 2.34 2.34 2 2 C1.34 3.32 0.68 4.64 0 6 C-0.66 5.67 -1.32 5.34 -2 5 C-1.34 3.35 -0.68 1.7 0 0 Z " fill="#0B090A" transform="translate(316,135)"/>
</svg>
